  0
SECTION
  2
HEADER
  9
$ACADVER
  1
AC1014
  9
$HANDSEED
  5
FFFF
  9
$MEASUREMENT
 70
     1
  0
ENDSEC
  0
SECTION
  2
TABLES
  0
TABLE
  2
VPORT
  5
8
330
0
100
AcDbSymbolTable
 70
     4
  0
VPORT
  5
2E
330
8
100
AcDbSymbolTableRecord
100
AcDbViewportTableRecord
  2
*ACTIVE
 70
     0
 10
0.0
 20
0.0
 11
1.0
 21
1.0
 12
210.0
 22
148.5
 13
0.0
 23
0.0
 14
10.0
 24
10.0
 15
10.0
 25
10.0
 16
0.0
 26
0.0
 36
1.0
 17
0.0
 27
0.0
 37
0.0
 40
341.0
 41
1.24
 42
50.0
 43
0.0
 44
0.0
 50
0.0
 51
0.0
 71
     0
 72
   100
 73
     1
 74
     3
 75
     0
 76
     0
 77
     0
 78
     0
  0
ENDTAB
  0
TABLE
  2
LTYPE
  5
5
330
0
100
AcDbSymbolTable
 70
     1
  0
LTYPE
  5
14
330
5
100
AcDbSymbolTableRecord
100
AcDbLinetypeTableRecord
  2
BYBLOCK
 70
     0
  3

 72
    65
 73
     0
 40
0.0
  0
LTYPE
  5
15
330
5
100
AcDbSymbolTableRecord
100
AcDbLinetypeTableRecord
  2
BYLAYER
 70
     0
  3

 72
    65
 73
     0
 40
0.0
  0
LTYPE
  5
16
330
5
100
AcDbSymbolTableRecord
100
AcDbLinetypeTableRecord
  2
CONTINUOUS
 70
     0
  3
Solid line
 72
    65
 73
     0
 40
0.0
  0
ENDTAB
  0
TABLE
  2
LAYER
  5
2
100
AcDbSymbolTable
 70
2
  0
LAYER
  5
50
100
AcDbSymbolTableRecord
100
AcDbLayerTableRecord
  2
0
 70
0
  6
CONTINUOUS
  0
LAYER
  5
51
100
AcDbSymbolTableRecord
100
AcDbLayerTableRecord
  2
Layer_1
 70
0
  6
CONTINUOUS
  0
ENDTAB
  0
TABLE
  2
STYLE
  5
3
330
0
100
AcDbSymbolTable
 70
     1
  0
STYLE
  5
11
330
3
100
AcDbSymbolTableRecord
100
AcDbTextStyleTableRecord
  2
STANDARD
 70
     0
 40
0.0
 41
1.0
 50
0.0
 71
     0
 42
2.5
  3
txt
  4

  0
ENDTAB
  0
TABLE
  2
VIEW
  5
6
330
0
100
AcDbSymbolTable
 70
     0
  0
ENDTAB
  0
TABLE
  2
UCS
  5
7
330
0
100
AcDbSymbolTable
 70
     0
  0
ENDTAB
  0
TABLE
  2
APPID
  5
9
330
0
100
AcDbSymbolTable
 70
     2
  0
APPID
  5
12
330
9
100
AcDbSymbolTableRecord
100
AcDbRegAppTableRecord
  2
ACAD
 70
     0
  0
ENDTAB
  0
TABLE
  2
DIMSTYLE
  5
A
330
0
100
AcDbSymbolTable
 70
     1
  0
DIMSTYLE
105
27
330
A
100
AcDbSymbolTableRecord
100
AcDbDimStyleTableRecord
  2
ISO-25
 70
     0
  3

  4

  5

  6

  7

 40
1.0
 41
2.5
 42
0.625
 43
3.75
 44
1.25
 45
0.0
 46
0.0
 47
0.0
 48
0.0
140
2.5
141
2.5
142
0.0
143
0.03937007874016
144
1.0
145
0.0
146
1.0
147
0.625
 71
     0
 72
     0
 73
     0
 74
     0
 75
     0
 76
     0
 77
     1
 78
     8
170
     0
171
     3
172
     1
173
     0
174
     0
175
     0
176
     0
177
     0
178
     0
270
     2
271
     2
272
     2
273
     2
274
     3
340
11
275
     0
280
     0
281
     0
282
     0
283
     0
284
     8
285
     0
286
     0
287
     3
288
     0
  0
ENDTAB
  0
TABLE
  2
BLOCK_RECORD
  5
1
330
0
100
AcDbSymbolTable
 70
     1
  0
BLOCK_RECORD
  5
1F
330
1
100
AcDbSymbolTableRecord
100
AcDbBlockTableRecord
  2
*MODEL_SPACE
  0
BLOCK_RECORD
  5
1B
330
1
100
AcDbSymbolTableRecord
100
AcDbBlockTableRecord
  2
*PAPER_SPACE
  0
ENDTAB
  0
ENDSEC
  0
SECTION
  2
BLOCKS
  0
BLOCK
  5
20
330
1F
100
AcDbEntity
  8
0
100
AcDbBlockBegin
  2
*MODEL_SPACE
 70
     0
 10
0.0
 20
0.0
 30
0.0
  3
*MODEL_SPACE
  1

  0
ENDBLK
  5
21
330
1F
100
AcDbEntity
  8
0
100
AcDbBlockEnd
  0
BLOCK
  5
1C
330
1B
100
AcDbEntity
 67
     1
  8
0
100
AcDbBlockBegin
  2
*PAPER_SPACE
  1

  0
ENDBLK
  5
1D
330
1B
100
AcDbEntity
 67
     1
  8
0
100
AcDbBlockEnd
  0
ENDSEC
  0
SECTION
  2
ENTITIES
  0
SPLINE
  5
100
100
AcDbEntity
  8
Layer_1
 62
1
100
AcDbSpline
 70
8
 71
3
 72
8
 73
4
 74
0
 40
0
 40
0
 40
0
 40
0
 40
1
 40
1
 40
1
 40
1
 10
518.238366
 20
412.839228
 30
0.0
 10
518.238366
 20
410.906006
 30
0.0
 10
516.671327
 20
409.338967
 30
0.0
 10
514.738105
 20
409.338967
 30
0.0
  0
SPLINE
  5
101
100
AcDbEntity
  8
Layer_1
 62
1
100
AcDbSpline
 70
8
 71
3
 72
8
 73
4
 74
0
 40
0
 40
0
 40
0
 40
0
 40
1
 40
1
 40
1
 40
1
 10
514.738105
 20
409.338967
 30
0.0
 10
512.804883
 20
409.338967
 30
0.0
 10
511.238197
 20
410.906006
 30
0.0
 10
511.238197
 20
412.839228
 30
0.0
  0
SPLINE
  5
102
100
AcDbEntity
  8
Layer_1
 62
1
100
AcDbSpline
 70
8
 71
3
 72
8
 73
4
 74
0
 40
0
 40
0
 40
0
 40
0
 40
1
 40
1
 40
1
 40
1
 10
511.238197
 20
412.839228
 30
0.0
 10
511.238197
 20
414.772098
 30
0.0
 10
512.804883
 20
416.338784
 30
0.0
 10
514.738105
 20
416.338784
 30
0.0
  0
SPLINE
  5
103
100
AcDbEntity
  8
Layer_1
 62
1
100
AcDbSpline
 70
8
 71
3
 72
8
 73
4
 74
0
 40
0
 40
0
 40
0
 40
0
 40
1
 40
1
 40
1
 40
1
 10
514.738105
 20
416.338784
 30
0.0
 10
516.671327
 20
416.338784
 30
0.0
 10
518.238366
 20
414.772098
 30
0.0
 10
518.238366
 20
412.839228
 30
0.0
  0
SPLINE
  5
104
100
AcDbEntity
  8
Layer_1
 62
1
100
AcDbSpline
 70
8
 71
3
 72
8
 73
4
 74
0
 40
0
 40
0
 40
0
 40
0
 40
1
 40
1
 40
1
 40
1
 10
518.239742
 20
502.838060
 30
0.0
 10
518.239742
 20
500.905191
 30
0.0
 10
516.672350
 20
499.338152
 30
0.0
 10
514.739128
 20
499.337799
 30
0.0
  0
SPLINE
  5
105
100
AcDbEntity
  8
Layer_1
 62
1
100
AcDbSpline
 70
8
 71
3
 72
8
 73
4
 74
0
 40
0
 40
0
 40
0
 40
0
 40
1
 40
1
 40
1
 40
1
 10
514.739128
 20
499.337799
 30
0.0
 10
512.805906
 20
499.338152
 30
0.0
 10
511.239220
 20
500.905191
 30
0.0
 10
511.239220
 20
502.838060
 30
0.0
  0
SPLINE
  5
106
100
AcDbEntity
  8
Layer_1
 62
1
100
AcDbSpline
 70
8
 71
3
 72
8
 73
4
 74
0
 40
0
 40
0
 40
0
 40
0
 40
1
 40
1
 40
1
 40
1
 10
511.239220
 20
502.838060
 30
0.0
 10
511.239220
 20
504.771283
 30
0.0
 10
512.805906
 20
506.337969
 30
0.0
 10
514.739128
 20
506.338321
 30
0.0
  0
SPLINE
  5
107
100
AcDbEntity
  8
Layer_1
 62
1
100
AcDbSpline
 70
8
 71
3
 72
8
 73
4
 74
0
 40
0
 40
0
 40
0
 40
0
 40
1
 40
1
 40
1
 40
1
 10
514.739128
 20
506.338321
 30
0.0
 10
516.672350
 20
506.337969
 30
0.0
 10
518.239389
 20
504.771283
 30
0.0
 10
518.239742
 20
502.838060
 30
0.0
  0
LWPOLYLINE
  5
108
100
AcDbEntity
  8
Layer_1
 62
1
100
AcDbPolyline
 90
2
 70
1
 10
518.238366
 20
412.839228
 30
0.0
 10
518.238366
 20
412.839228
 30
0.0
  0
SPLINE
  5
109
100
AcDbEntity
  8
Layer_1
 62
1
100
AcDbSpline
 70
8
 71
3
 72
8
 73
4
 74
0
 40
0
 40
0
 40
0
 40
0
 40
1
 40
1
 40
1
 40
1
 10
580.852647
 20
441.672603
 30
0.0
 10
582.219308
 20
440.306294
 30
0.0
 10
582.218955
 20
438.089791
 30
0.0
 10
580.852294
 20
436.723483
 30
0.0
  0
SPLINE
  5
10a
100
AcDbEntity
  8
Layer_1
 62
1
100
AcDbSpline
 70
8
 71
3
 72
8
 73
4
 74
0
 40
0
 40
0
 40
0
 40
0
 40
1
 40
1
 40
1
 40
1
 10
580.852294
 20
436.723483
 30
0.0
 10
579.484927
 20
435.356116
 30
0.0
 10
577.269483
 20
435.356469
 30
0.0
 10
575.903175
 20
436.723130
 30
0.0
  0
SPLINE
  5
10b
100
AcDbEntity
  8
Layer_1
 62
1
100
AcDbSpline
 70
8
 71
3
 72
8
 73
4
 74
0
 40
0
 40
0
 40
0
 40
0
 40
1
 40
1
 40
1
 40
1
 10
575.903175
 20
436.723130
 30
0.0
 10
574.535455
 20
438.090144
 30
0.0
 10
574.535455
 20
440.305589
 30
0.0
 10
575.902822
 20
441.672955
 30
0.0
  0
SPLINE
  5
10c
100
AcDbEntity
  8
Layer_1
 62
1
100
AcDbSpline
 70
8
 71
3
 72
8
 73
4
 74
0
 40
0
 40
0
 40
0
 40
0
 40
1
 40
1
 40
1
 40
1
 10
575.902822
 20
441.672955
 30
0.0
 10
577.269483
 20
443.039616
 30
0.0
 10
579.485633
 20
443.039969
 30
0.0
 10
580.852647
 20
441.672603
 30
0.0
  0
LWPOLYLINE
  5
10d
100
AcDbEntity
  8
Layer_1
 62
1
100
AcDbPolyline
 90
2
 70
1
 10
518.239742
 20
502.838060
 30
0.0
 10
518.239742
 20
502.838060
 30
0.0
  0
SPLINE
  5
10e
100
AcDbEntity
  8
Layer_1
 62
1
100
AcDbSpline
 70
8
 71
3
 72
8
 73
4
 74
0
 40
0
 40
0
 40
0
 40
0
 40
1
 40
1
 40
1
 40
1
 10
453.575999
 20
568.951685
 30
0.0
 10
454.942660
 20
567.585024
 30
0.0
 10
454.941954
 20
565.368874
 30
0.0
 10
453.575293
 20
564.002213
 30
0.0
  0
SPLINE
  5
10f
100
AcDbEntity
  8
Layer_1
 62
1
100
AcDbSpline
 70
8
 71
3
 72
8
 73
4
 74
0
 40
0
 40
0
 40
0
 40
0
 40
1
 40
1
 40
1
 40
1
 10
453.575293
 20
564.002213
 30
0.0
 10
452.208279
 20
562.634846
 30
0.0
 10
449.992835
 20
562.635199
 30
0.0
 10
448.625821
 20
564.002213
 30
0.0
  0
SPLINE
  5
110
100
AcDbEntity
  8
Layer_1
 62
1
100
AcDbSpline
 70
8
 71
3
 72
8
 73
4
 74
0
 40
0
 40
0
 40
0
 40
0
 40
1
 40
1
 40
1
 40
1
 10
448.625821
 20
564.002213
 30
0.0
 10
447.258807
 20
565.368874
 30
0.0
 10
447.258807
 20
567.584671
 30
0.0
 10
448.625821
 20
568.951685
 30
0.0
  0
SPLINE
  5
111
100
AcDbEntity
  8
Layer_1
 62
1
100
AcDbSpline
 70
8
 71
3
 72
8
 73
4
 74
0
 40
0
 40
0
 40
0
 40
0
 40
1
 40
1
 40
1
 40
1
 10
448.625821
 20
568.951685
 30
0.0
 10
449.992482
 20
570.318346
 30
0.0
 10
452.208985
 20
570.318699
 30
0.0
 10
453.575999
 20
568.951685
 30
0.0
  0
LWPOLYLINE
  5
112
100
AcDbEntity
  8
Layer_1
 62
1
100
AcDbPolyline
 90
2
 70
1
 10
580.852647
 20
441.672603
 30
0.0
 10
580.852647
 20
441.672603
 30
0.0
  0
SPLINE
  5
113
100
AcDbEntity
  8
Layer_1
 62
1
100
AcDbSpline
 70
8
 71
3
 72
8
 73
4
 74
0
 40
0
 40
0
 40
0
 40
0
 40
1
 40
1
 40
1
 40
1
 10
453.574799
 20
436.724753
 30
0.0
 10
452.208138
 20
435.358092
 30
0.0
 10
449.991988
 20
435.358445
 30
0.0
 10
448.624621
 20
436.724753
 30
0.0
  0
SPLINE
  5
114
100
AcDbEntity
  8
Layer_1
 62
1
100
AcDbSpline
 70
8
 71
3
 72
8
 73
4
 74
0
 40
0
 40
0
 40
0
 40
0
 40
1
 40
1
 40
1
 40
1
 10
448.624621
 20
436.724753
 30
0.0
 10
447.257960
 20
438.091767
 30
0.0
 10
447.257960
 20
440.307917
 30
0.0
 10
448.624621
 20
441.674578
 30
0.0
  0
SPLINE
  5
115
100
AcDbEntity
  8
Layer_1
 62
1
100
AcDbSpline
 70
8
 71
3
 72
8
 73
4
 74
0
 40
0
 40
0
 40
0
 40
0
 40
1
 40
1
 40
1
 40
1
 10
448.624621
 20
441.674578
 30
0.0
 10
449.991988
 20
443.041592
 30
0.0
 10
452.207432
 20
443.041592
 30
0.0
 10
453.574446
 20
441.674578
 30
0.0
  0
SPLINE
  5
116
100
AcDbEntity
  8
Layer_1
 62
1
100
AcDbSpline
 70
8
 71
3
 72
8
 73
4
 74
0
 40
0
 40
0
 40
0
 40
0
 40
1
 40
1
 40
1
 40
1
 10
453.574446
 20
441.674578
 30
0.0
 10
454.941460
 20
440.307917
 30
0.0
 10
454.941813
 20
438.091767
 30
0.0
 10
453.574799
 20
436.724753
 30
0.0
  0
LWPOLYLINE
  5
117
100
AcDbEntity
  8
Layer_1
 62
1
100
AcDbPolyline
 90
2
 70
1
 10
453.575999
 20
568.951685
 30
0.0
 10
453.575999
 20
568.951685
 30
0.0
  0
SPLINE
  5
118
100
AcDbEntity
  8
Layer_1
 62
1
100
AcDbSpline
 70
8
 71
3
 72
8
 73
4
 74
0
 40
0
 40
0
 40
0
 40
0
 40
1
 40
1
 40
1
 40
1
 10
580.853317
 20
564.001578
 30
0.0
 10
579.486656
 20
562.634564
 30
0.0
 10
577.270153
 20
562.634917
 30
0.0
 10
575.904198
 20
564.001578
 30
0.0
  0
SPLINE
  5
119
100
AcDbEntity
  8
Layer_1
 62
1
100
AcDbSpline
 70
8
 71
3
 72
8
 73
4
 74
0
 40
0
 40
0
 40
0
 40
0
 40
1
 40
1
 40
1
 40
1
 10
575.904198
 20
564.001578
 30
0.0
 10
574.536478
 20
565.368944
 30
0.0
 10
574.537184
 20
567.584389
 30
0.0
 10
575.904198
 20
568.951756
 30
0.0
  0
SPLINE
  5
11a
100
AcDbEntity
  8
Layer_1
 62
1
100
AcDbSpline
 70
8
 71
3
 72
8
 73
4
 74
0
 40
0
 40
0
 40
0
 40
0
 40
1
 40
1
 40
1
 40
1
 10
575.904198
 20
568.951756
 30
0.0
 10
577.270506
 20
570.318417
 30
0.0
 10
579.486303
 20
570.318769
 30
0.0
 10
580.853317
 20
568.951756
 30
0.0
  0
SPLINE
  5
11b
100
AcDbEntity
  8
Layer_1
 62
1
100
AcDbSpline
 70
8
 71
3
 72
8
 73
4
 74
0
 40
0
 40
0
 40
0
 40
0
 40
1
 40
1
 40
1
 40
1
 10
580.853317
 20
568.951756
 30
0.0
 10
582.220331
 20
567.584389
 30
0.0
 10
582.220684
 20
565.368944
 30
0.0
 10
580.853317
 20
564.001578
 30
0.0
  0
LWPOLYLINE
  5
11c
100
AcDbEntity
  8
Layer_1
 62
1
100
AcDbPolyline
 90
2
 70
1
 10
453.574799
 20
436.724753
 30
0.0
 10
453.574799
 20
436.724753
 30
0.0
  0
SPLINE
  5
11d
100
AcDbEntity
  8
Layer_1
 62
1
100
AcDbSpline
 70
8
 71
3
 72
8
 73
4
 74
0
 40
0
 40
0
 40
0
 40
0
 40
1
 40
1
 40
1
 40
1
 10
549.033044
 20
473.492558
 30
0.0
 10
550.399705
 20
472.125897
 30
0.0
 10
550.399705
 20
469.909394
 30
0.0
 10
549.033044
 20
468.542381
 30
0.0
  0
SPLINE
  5
11e
100
AcDbEntity
  8
Layer_1
 62
1
100
AcDbSpline
 70
8
 71
3
 72
8
 73
4
 74
0
 40
0
 40
0
 40
0
 40
0
 40
1
 40
1
 40
1
 40
1
 10
549.033044
 20
468.542381
 30
0.0
 10
547.666030
 20
467.175367
 30
0.0
 10
545.450233
 20
467.176072
 30
0.0
 10
544.082866
 20
468.542733
 30
0.0
  0
SPLINE
  5
11f
100
AcDbEntity
  8
Layer_1
 62
1
100
AcDbSpline
 70
8
 71
3
 72
8
 73
4
 74
0
 40
0
 40
0
 40
0
 40
0
 40
1
 40
1
 40
1
 40
1
 10
544.082866
 20
468.542733
 30
0.0
 10
542.716205
 20
469.910100
 30
0.0
 10
542.715852
 20
472.125192
 30
0.0
 10
544.083219
 20
473.492558
 30
0.0
  0
SPLINE
  5
120
100
AcDbEntity
  8
Layer_1
 62
1
100
AcDbSpline
 70
8
 71
3
 72
8
 73
4
 74
0
 40
0
 40
0
 40
0
 40
0
 40
1
 40
1
 40
1
 40
1
 10
544.083219
 20
473.492558
 30
0.0
 10
545.450233
 20
474.859925
 30
0.0
 10
547.666030
 20
474.859572
 30
0.0
 10
549.033044
 20
473.492558
 30
0.0
  0
LWPOLYLINE
  5
121
100
AcDbEntity
  8
Layer_1
 62
1
100
AcDbPolyline
 90
2
 70
1
 10
580.853317
 20
564.001578
 30
0.0
 10
580.853317
 20
564.001578
 30
0.0
  0
SPLINE
  5
122
100
AcDbEntity
  8
Layer_1
 62
1
100
AcDbSpline
 70
8
 71
3
 72
8
 73
4
 74
0
 40
0
 40
0
 40
0
 40
0
 40
1
 40
1
 40
1
 40
1
 10
485.394543
 20
537.131906
 30
0.0
 10
486.761204
 20
535.765244
 30
0.0
 10
486.761557
 20
533.548742
 30
0.0
 10
485.394543
 20
532.181728
 30
0.0
  0
SPLINE
  5
123
100
AcDbEntity
  8
Layer_1
 62
1
100
AcDbSpline
 70
8
 71
3
 72
8
 73
4
 74
0
 40
0
 40
0
 40
0
 40
0
 40
1
 40
1
 40
1
 40
1
 10
485.394543
 20
532.181728
 30
0.0
 10
484.027529
 20
530.814714
 30
0.0
 10
481.811732
 20
530.815772
 30
0.0
 10
480.444366
 20
532.181728
 30
0.0
  0
SPLINE
  5
124
100
AcDbEntity
  8
Layer_1
 62
1
100
AcDbSpline
 70
8
 71
3
 72
8
 73
4
 74
0
 40
0
 40
0
 40
0
 40
0
 40
1
 40
1
 40
1
 40
1
 10
480.444366
 20
532.181728
 30
0.0
 10
479.077352
 20
533.549094
 30
0.0
 10
479.077352
 20
535.764892
 30
0.0
 10
480.444366
 20
537.131906
 30
0.0
  0
SPLINE
  5
125
100
AcDbEntity
  8
Layer_1
 62
1
100
AcDbSpline
 70
8
 71
3
 72
8
 73
4
 74
0
 40
0
 40
0
 40
0
 40
0
 40
1
 40
1
 40
1
 40
1
 10
480.444366
 20
537.131906
 30
0.0
 10
481.811379
 20
538.498567
 30
0.0
 10
484.027529
 20
538.498919
 30
0.0
 10
485.394543
 20
537.131906
 30
0.0
  0
LWPOLYLINE
  5
126
100
AcDbEntity
  8
Layer_1
 62
1
100
AcDbPolyline
 90
2
 70
1
 10
549.033044
 20
473.492558
 30
0.0
 10
549.033044
 20
473.492558
 30
0.0
  0
SPLINE
  5
127
100
AcDbEntity
  8
Layer_1
 62
1
100
AcDbSpline
 70
8
 71
3
 72
8
 73
4
 74
0
 40
0
 40
0
 40
0
 40
0
 40
1
 40
1
 40
1
 40
1
 10
485.394543
 20
468.544356
 30
0.0
 10
484.027882
 20
467.177342
 30
0.0
 10
481.811027
 20
467.177342
 30
0.0
 10
480.444366
 20
468.544709
 30
0.0
  0
SPLINE
  5
128
100
AcDbEntity
  8
Layer_1
 62
1
100
AcDbSpline
 70
8
 71
3
 72
8
 73
4
 74
0
 40
0
 40
0
 40
0
 40
0
 40
1
 40
1
 40
1
 40
1
 10
480.444366
 20
468.544709
 30
0.0
 10
479.077352
 20
469.911370
 30
0.0
 10
479.077704
 20
472.127520
 30
0.0
 10
480.444718
 20
473.494181
 30
0.0
  0
SPLINE
  5
129
100
AcDbEntity
  8
Layer_1
 62
1
100
AcDbSpline
 70
8
 71
3
 72
8
 73
4
 74
0
 40
0
 40
0
 40
0
 40
0
 40
1
 40
1
 40
1
 40
1
 10
480.444718
 20
473.494181
 30
0.0
 10
481.811732
 20
474.861548
 30
0.0
 10
484.027177
 20
474.861195
 30
0.0
 10
485.394190
 20
473.494181
 30
0.0
  0
SPLINE
  5
12a
100
AcDbEntity
  8
Layer_1
 62
1
100
AcDbSpline
 70
8
 71
3
 72
8
 73
4
 74
0
 40
0
 40
0
 40
0
 40
0
 40
1
 40
1
 40
1
 40
1
 10
485.394190
 20
473.494181
 30
0.0
 10
486.761204
 20
472.127167
 30
0.0
 10
486.761557
 20
469.911370
 30
0.0
 10
485.394543
 20
468.544356
 30
0.0
  0
LWPOLYLINE
  5
12b
100
AcDbEntity
  8
Layer_1
 62
1
100
AcDbPolyline
 90
2
 70
1
 10
485.394543
 20
537.131906
 30
0.0
 10
485.394543
 20
537.131906
 30
0.0
  0
SPLINE
  5
12c
100
AcDbEntity
  8
Layer_1
 62
1
100
AcDbSpline
 70
8
 71
3
 72
8
 73
4
 74
0
 40
0
 40
0
 40
0
 40
0
 40
1
 40
1
 40
1
 40
1
 10
549.033397
 20
532.182680
 30
0.0
 10
547.667441
 20
530.816372
 30
0.0
 10
545.450585
 20
530.816019
 30
0.0
 10
544.083924
 20
532.183033
 30
0.0
  0
SPLINE
  5
12d
100
AcDbEntity
  8
Layer_1
 62
1
100
AcDbSpline
 70
8
 71
3
 72
8
 73
4
 74
0
 40
0
 40
0
 40
0
 40
0
 40
1
 40
1
 40
1
 40
1
 10
544.083924
 20
532.183033
 30
0.0
 10
542.716558
 20
533.549694
 30
0.0
 10
542.717263
 20
535.765491
 30
0.0
 10
544.083924
 20
537.132858
 30
0.0
  0
SPLINE
  5
12e
100
AcDbEntity
  8
Layer_1
 62
1
100
AcDbSpline
 70
8
 71
3
 72
8
 73
4
 74
0
 40
0
 40
0
 40
0
 40
0
 40
1
 40
1
 40
1
 40
1
 10
544.083924
 20
537.132858
 30
0.0
 10
545.451291
 20
538.500225
 30
0.0
 10
547.666735
 20
538.499872
 30
0.0
 10
549.033397
 20
537.132858
 30
0.0
  0
SPLINE
  5
12f
100
AcDbEntity
  8
Layer_1
 62
1
100
AcDbSpline
 70
8
 71
3
 72
8
 73
4
 74
0
 40
0
 40
0
 40
0
 40
0
 40
1
 40
1
 40
1
 40
1
 10
549.033397
 20
537.132858
 30
0.0
 10
550.400763
 20
535.765844
 30
0.0
 10
550.400763
 20
533.549694
 30
0.0
 10
549.033397
 20
532.182680
 30
0.0
  0
LWPOLYLINE
  5
130
100
AcDbEntity
  8
Layer_1
 62
1
100
AcDbPolyline
 90
2
 70
1
 10
485.394543
 20
468.544356
 30
0.0
 10
485.394543
 20
468.544356
 30
0.0
  0
SPLINE
  5
131
100
AcDbEntity
  8
Layer_1
 62
1
100
AcDbSpline
 70
8
 71
3
 72
8
 73
4
 74
0
 40
0
 40
0
 40
0
 40
0
 40
1
 40
1
 40
1
 40
1
 10
518.238366
 20
457.838397
 30
0.0
 10
518.238366
 20
455.905528
 30
0.0
 10
516.670974
 20
454.338136
 30
0.0
 10
514.738105
 20
454.338136
 30
0.0
  0
SPLINE
  5
132
100
AcDbEntity
  8
Layer_1
 62
1
100
AcDbSpline
 70
8
 71
3
 72
8
 73
4
 74
0
 40
0
 40
0
 40
0
 40
0
 40
1
 40
1
 40
1
 40
1
 10
514.738105
 20
454.338136
 30
0.0
 10
512.804883
 20
454.338136
 30
0.0
 10
511.238197
 20
455.905528
 30
0.0
 10
511.237844
 20
457.839103
 30
0.0
  0
SPLINE
  5
133
100
AcDbEntity
  8
Layer_1
 62
1
100
AcDbSpline
 70
8
 71
3
 72
8
 73
4
 74
0
 40
0
 40
0
 40
0
 40
0
 40
1
 40
1
 40
1
 40
1
 10
511.237844
 20
457.839103
 30
0.0
 10
511.238197
 20
459.771619
 30
0.0
 10
512.804530
 20
461.338658
 30
0.0
 10
514.738105
 20
461.338658
 30
0.0
  0
SPLINE
  5
134
100
AcDbEntity
  8
Layer_1
 62
1
100
AcDbSpline
 70
8
 71
3
 72
8
 73
4
 74
0
 40
0
 40
0
 40
0
 40
0
 40
1
 40
1
 40
1
 40
1
 10
514.738105
 20
461.338658
 30
0.0
 10
516.671680
 20
461.338658
 30
0.0
 10
518.238366
 20
459.771619
 30
0.0
 10
518.238366
 20
457.838397
 30
0.0
  0
LWPOLYLINE
  5
135
100
AcDbEntity
  8
Layer_1
 62
1
100
AcDbPolyline
 90
2
 70
1
 10
549.033397
 20
532.182680
 30
0.0
 10
549.033397
 20
532.182680
 30
0.0
  0
SPLINE
  5
136
100
AcDbEntity
  8
Layer_1
 62
1
100
AcDbSpline
 70
8
 71
3
 72
8
 73
4
 74
0
 40
0
 40
0
 40
0
 40
0
 40
1
 40
1
 40
1
 40
1
 10
604.738525
 20
506.336205
 30
0.0
 10
606.671394
 20
506.336558
 30
0.0
 10
608.238433
 20
504.769166
 30
0.0
 10
608.238433
 20
502.836296
 30
0.0
  0
SPLINE
  5
137
100
AcDbEntity
  8
Layer_1
 62
1
100
AcDbSpline
 70
8
 71
3
 72
8
 73
4
 74
0
 40
0
 40
0
 40
0
 40
0
 40
1
 40
1
 40
1
 40
1
 10
608.238433
 20
502.836296
 30
0.0
 10
608.238786
 20
500.902721
 30
0.0
 10
606.671394
 20
499.336741
 30
0.0
 10
604.738525
 20
499.336741
 30
0.0
  0
SPLINE
  5
138
100
AcDbEntity
  8
Layer_1
 62
1
100
AcDbSpline
 70
8
 71
3
 72
8
 73
4
 74
0
 40
0
 40
0
 40
0
 40
0
 40
1
 40
1
 40
1
 40
1
 10
604.738525
 20
499.336741
 30
0.0
 10
602.805302
 20
499.336035
 30
0.0
 10
601.238616
 20
500.902721
 30
0.0
 10
601.238616
 20
502.836296
 30
0.0
  0
SPLINE
  5
139
100
AcDbEntity
  8
Layer_1
 62
1
100
AcDbSpline
 70
8
 71
3
 72
8
 73
4
 74
0
 40
0
 40
0
 40
0
 40
0
 40
1
 40
1
 40
1
 40
1
 10
601.238616
 20
502.836296
 30
0.0
 10
601.238616
 20
504.769519
 30
0.0
 10
602.805655
 20
506.336205
 30
0.0
 10
604.738525
 20
506.336205
 30
0.0
  0
LWPOLYLINE
  5
13a
100
AcDbEntity
  8
Layer_1
 62
1
100
AcDbPolyline
 90
2
 70
1
 10
518.238366
 20
457.838397
 30
0.0
 10
518.238366
 20
457.838397
 30
0.0
  0
SPLINE
  5
13b
100
AcDbEntity
  8
Layer_1
 62
1
100
AcDbSpline
 70
8
 71
3
 72
8
 73
4
 74
0
 40
0
 40
0
 40
0
 40
0
 40
1
 40
1
 40
1
 40
1
 10
708.130318
 20
314.395284
 30
0.0
 10
709.496979
 20
313.028270
 30
0.0
 10
709.496979
 20
310.811767
 30
0.0
 10
708.130318
 20
309.445459
 30
0.0
  0
SPLINE
  5
13c
100
AcDbEntity
  8
Layer_1
 62
1
100
AcDbSpline
 70
8
 71
3
 72
8
 73
4
 74
0
 40
0
 40
0
 40
0
 40
0
 40
1
 40
1
 40
1
 40
1
 10
708.130318
 20
309.445459
 30
0.0
 10
706.763304
 20
308.077739
 30
0.0
 10
704.547154
 20
308.078445
 30
0.0
 10
703.180493
 20
309.445459
 30
0.0
  0
SPLINE
  5
13d
100
AcDbEntity
  8
Layer_1
 62
1
100
AcDbSpline
 70
8
 71
3
 72
8
 73
4
 74
0
 40
0
 40
0
 40
0
 40
0
 40
1
 40
1
 40
1
 40
1
 10
703.180493
 20
309.445459
 30
0.0
 10
701.813127
 20
310.812473
 30
0.0
 10
701.813127
 20
313.028270
 30
0.0
 10
703.180140
 20
314.395284
 30
0.0
  0
SPLINE
  5
13e
100
AcDbEntity
  8
Layer_1
 62
1
100
AcDbSpline
 70
8
 71
3
 72
8
 73
4
 74
0
 40
0
 40
0
 40
0
 40
0
 40
1
 40
1
 40
1
 40
1
 10
703.180140
 20
314.395284
 30
0.0
 10
704.547507
 20
315.761592
 30
0.0
 10
706.762952
 20
315.762298
 30
0.0
 10
708.130318
 20
314.395284
 30
0.0
  0
LWPOLYLINE
  5
13f
100
AcDbEntity
  8
Layer_1
 62
1
100
AcDbPolyline
 90
2
 70
1
 10
604.738525
 20
506.336205
 30
0.0
 10
604.738525
 20
506.336205
 30
0.0
  0
SPLINE
  5
140
100
AcDbEntity
  8
Layer_1
 62
1
100
AcDbSpline
 70
8
 71
3
 72
8
 73
4
 74
0
 40
0
 40
0
 40
0
 40
0
 40
1
 40
1
 40
1
 40
1
 10
326.298680
 20
696.230203
 30
0.0
 10
327.664988
 20
694.863542
 30
0.0
 10
327.665694
 20
692.647392
 30
0.0
 10
326.298680
 20
691.280378
 30
0.0
  0
SPLINE
  5
141
100
AcDbEntity
  8
Layer_1
 62
1
100
AcDbSpline
 70
8
 71
3
 72
8
 73
4
 74
0
 40
0
 40
0
 40
0
 40
0
 40
1
 40
1
 40
1
 40
1
 10
326.298680
 20
691.280378
 30
0.0
 10
324.931313
 20
689.913011
 30
0.0
 10
322.715516
 20
689.914070
 30
0.0
 10
321.348855
 20
691.280378
 30
0.0
  0
SPLINE
  5
142
100
AcDbEntity
  8
Layer_1
 62
1
100
AcDbSpline
 70
8
 71
3
 72
8
 73
4
 74
0
 40
0
 40
0
 40
0
 40
0
 40
1
 40
1
 40
1
 40
1
 10
321.348855
 20
691.280378
 30
0.0
 10
319.981841
 20
692.647745
 30
0.0
 10
319.981841
 20
694.863542
 30
0.0
 10
321.348502
 20
696.230203
 30
0.0
  0
SPLINE
  5
143
100
AcDbEntity
  8
Layer_1
 62
1
100
AcDbSpline
 70
8
 71
3
 72
8
 73
4
 74
0
 40
0
 40
0
 40
0
 40
0
 40
1
 40
1
 40
1
 40
1
 10
321.348502
 20
696.230203
 30
0.0
 10
322.715516
 20
697.597217
 30
0.0
 10
324.931666
 20
697.597217
 30
0.0
 10
326.298680
 20
696.230203
 30
0.0
  0
LWPOLYLINE
  5
144
100
AcDbEntity
  8
Layer_1
 62
1
100
AcDbPolyline
 90
2
 70
1
 10
708.130318
 20
314.395284
 30
0.0
 10
708.130318
 20
314.395284
 30
0.0
  0
SPLINE
  5
145
100
AcDbEntity
  8
Layer_1
 62
1
100
AcDbSpline
 70
8
 71
3
 72
8
 73
4
 74
0
 40
0
 40
0
 40
0
 40
0
 40
1
 40
1
 40
1
 40
1
 10
784.736824
 20
506.337228
 30
0.0
 10
786.669694
 20
506.336875
 30
0.0
 10
788.236732
 20
504.769483
 30
0.0
 10
788.236732
 20
502.836967
 30
0.0
  0
SPLINE
  5
146
100
AcDbEntity
  8
Layer_1
 62
1
100
AcDbSpline
 70
8
 71
3
 72
8
 73
4
 74
0
 40
0
 40
0
 40
0
 40
0
 40
1
 40
1
 40
1
 40
1
 10
788.236732
 20
502.836967
 30
0.0
 10
788.237438
 20
500.903392
 30
0.0
 10
786.669694
 20
499.336706
 30
0.0
 10
784.736119
 20
499.336000
 30
0.0
  0
SPLINE
  5
147
100
AcDbEntity
  8
Layer_1
 62
1
100
AcDbSpline
 70
8
 71
3
 72
8
 73
4
 74
0
 40
0
 40
0
 40
0
 40
0
 40
1
 40
1
 40
1
 40
1
 10
784.736119
 20
499.336000
 30
0.0
 10
782.803602
 20
499.337058
 30
0.0
 10
781.236210
 20
500.903392
 30
0.0
 10
781.235857
 20
502.836261
 30
0.0
  0
SPLINE
  5
148
100
AcDbEntity
  8
Layer_1
 62
1
100
AcDbSpline
 70
8
 71
3
 72
8
 73
4
 74
0
 40
0
 40
0
 40
0
 40
0
 40
1
 40
1
 40
1
 40
1
 10
781.235857
 20
502.836261
 30
0.0
 10
781.236563
 20
504.770189
 30
0.0
 10
782.803602
 20
506.337228
 30
0.0
 10
784.736824
 20
506.337228
 30
0.0
  0
LWPOLYLINE
  5
149
100
AcDbEntity
  8
Layer_1
 62
1
100
AcDbPolyline
 90
2
 70
1
 10
326.298680
 20
696.230203
 30
0.0
 10
326.298680
 20
696.230203
 30
0.0
  0
SPLINE
  5
14a
100
AcDbEntity
  8
Layer_1
 62
1
100
AcDbSpline
 70
8
 71
3
 72
8
 73
4
 74
0
 40
0
 40
0
 40
0
 40
0
 40
1
 40
1
 40
1
 40
1
 10
244.742737
 20
506.339309
 30
0.0
 10
246.675607
 20
506.339309
 30
0.0
 10
248.242998
 20
504.771918
 30
0.0
 10
248.242645
 20
502.839048
 30
0.0
  0
SPLINE
  5
14b
100
AcDbEntity
  8
Layer_1
 62
1
100
AcDbSpline
 70
8
 71
3
 72
8
 73
4
 74
0
 40
0
 40
0
 40
0
 40
0
 40
1
 40
1
 40
1
 40
1
 10
248.242645
 20
502.839048
 30
0.0
 10
248.242998
 20
500.905473
 30
0.0
 10
246.675607
 20
499.338787
 30
0.0
 10
244.742737
 20
499.338787
 30
0.0
  0
SPLINE
  5
14c
100
AcDbEntity
  8
Layer_1
 62
1
100
AcDbSpline
 70
8
 71
3
 72
8
 73
4
 74
0
 40
0
 40
0
 40
0
 40
0
 40
1
 40
1
 40
1
 40
1
 10
244.742737
 20
499.338787
 30
0.0
 10
242.809162
 20
499.338787
 30
0.0
 10
241.242476
 20
500.905826
 30
0.0
 10
241.242476
 20
502.839401
 30
0.0
  0
SPLINE
  5
14d
100
AcDbEntity
  8
Layer_1
 62
1
100
AcDbSpline
 70
8
 71
3
 72
8
 73
4
 74
0
 40
0
 40
0
 40
0
 40
0
 40
1
 40
1
 40
1
 40
1
 10
241.242476
 20
502.839401
 30
0.0
 10
241.242476
 20
504.771918
 30
0.0
 10
242.809515
 20
506.339309
 30
0.0
 10
244.742737
 20
506.339309
 30
0.0
  0
LWPOLYLINE
  5
14e
100
AcDbEntity
  8
Layer_1
 62
1
100
AcDbPolyline
 90
2
 70
1
 10
784.736824
 20
506.337228
 30
0.0
 10
784.736824
 20
506.337228
 30
0.0
  0
SPLINE
  5
14f
100
AcDbEntity
  8
Layer_1
 62
1
100
AcDbSpline
 70
8
 71
3
 72
8
 73
4
 74
0
 40
0
 40
0
 40
0
 40
0
 40
1
 40
1
 40
1
 40
1
 10
518.239072
 20
232.840929
 30
0.0
 10
518.238366
 20
230.908059
 30
0.0
 10
516.671327
 20
229.340668
 30
0.0
 10
514.738810
 20
229.340668
 30
0.0
  0
SPLINE
  5
150
100
AcDbEntity
  8
Layer_1
 62
1
100
AcDbSpline
 70
8
 71
3
 72
8
 73
4
 74
0
 40
0
 40
0
 40
0
 40
0
 40
1
 40
1
 40
1
 40
1
 10
514.738810
 20
229.340668
 30
0.0
 10
512.805235
 20
229.340668
 30
0.0
 10
511.238197
 20
230.908059
 30
0.0
 10
511.238197
 20
232.840929
 30
0.0
  0
SPLINE
  5
151
100
AcDbEntity
  8
Layer_1
 62
1
100
AcDbSpline
 70
8
 71
3
 72
8
 73
4
 74
0
 40
0
 40
0
 40
0
 40
0
 40
1
 40
1
 40
1
 40
1
 10
511.238197
 20
232.840929
 30
0.0
 10
511.238197
 20
234.774151
 30
0.0
 10
512.804883
 20
236.341190
 30
0.0
 10
514.738810
 20
236.340484
 30
0.0
  0
SPLINE
  5
152
100
AcDbEntity
  8
Layer_1
 62
1
100
AcDbSpline
 70
8
 71
3
 72
8
 73
4
 74
0
 40
0
 40
0
 40
0
 40
0
 40
1
 40
1
 40
1
 40
1
 10
514.738810
 20
236.340484
 30
0.0
 10
516.671327
 20
236.341190
 30
0.0
 10
518.238366
 20
234.774151
 30
0.0
 10
518.239072
 20
232.840929
 30
0.0
  0
LWPOLYLINE
  5
153
100
AcDbEntity
  8
Layer_1
 62
1
100
AcDbPolyline
 90
2
 70
1
 10
244.742737
 20
506.339309
 30
0.0
 10
244.742737
 20
506.339309
 30
0.0
  0
SPLINE
  5
154
100
AcDbEntity
  8
Layer_1
 62
1
100
AcDbSpline
 70
8
 71
3
 72
8
 73
4
 74
0
 40
0
 40
0
 40
0
 40
0
 40
1
 40
1
 40
1
 40
1
 10
518.240447
 20
772.834663
 30
0.0
 10
518.241153
 20
770.902146
 30
0.0
 10
516.674467
 20
769.334754
 30
0.0
 10
514.741245
 20
769.335107
 30
0.0
  0
SPLINE
  5
155
100
AcDbEntity
  8
Layer_1
 62
1
100
AcDbSpline
 70
8
 71
3
 72
8
 73
4
 74
0
 40
0
 40
0
 40
0
 40
0
 40
1
 40
1
 40
1
 40
1
 10
514.741245
 20
769.335107
 30
0.0
 10
512.807317
 20
769.335107
 30
0.0
 10
511.240631
 20
770.902499
 30
0.0
 10
511.240631
 20
772.834663
 30
0.0
  0
SPLINE
  5
156
100
AcDbEntity
  8
Layer_1
 62
1
100
AcDbSpline
 70
8
 71
3
 72
8
 73
4
 74
0
 40
0
 40
0
 40
0
 40
0
 40
1
 40
1
 40
1
 40
1
 10
511.240631
 20
772.834663
 30
0.0
 10
511.240631
 20
774.768238
 30
0.0
 10
512.807670
 20
776.334924
 30
0.0
 10
514.740892
 20
776.334571
 30
0.0
  0
SPLINE
  5
157
100
AcDbEntity
  8
Layer_1
 62
1
100
AcDbSpline
 70
8
 71
3
 72
8
 73
4
 74
0
 40
0
 40
0
 40
0
 40
0
 40
1
 40
1
 40
1
 40
1
 10
514.740892
 20
776.334571
 30
0.0
 10
516.674114
 20
776.335277
 30
0.0
 10
518.240447
 20
774.768238
 30
0.0
 10
518.240447
 20
772.834663
 30
0.0
  0
LWPOLYLINE
  5
158
100
AcDbEntity
  8
Layer_1
 62
1
100
AcDbPolyline
 90
2
 70
1
 10
518.239072
 20
232.840929
 30
0.0
 10
518.239072
 20
232.840929
 30
0.0
  0
SPLINE
  5
159
100
AcDbEntity
  8
Layer_1
 62
1
100
AcDbSpline
 70
8
 71
3
 72
8
 73
4
 74
0
 40
0
 40
0
 40
0
 40
0
 40
1
 40
1
 40
1
 40
1
 10
703.182469
 20
696.228474
 30
0.0
 10
704.548777
 20
697.595488
 30
0.0
 10
706.765280
 20
697.595136
 30
0.0
 10
708.131941
 20
696.228827
 30
0.0
  0
SPLINE
  5
15a
100
AcDbEntity
  8
Layer_1
 62
1
100
AcDbSpline
 70
8
 71
3
 72
8
 73
4
 74
0
 40
0
 40
0
 40
0
 40
0
 40
1
 40
1
 40
1
 40
1
 10
708.131941
 20
696.228827
 30
0.0
 10
709.499308
 20
694.861461
 30
0.0
 10
709.498602
 20
692.645663
 30
0.0
 10
708.132294
 20
691.278649
 30
0.0
  0
SPLINE
  5
15b
100
AcDbEntity
  8
Layer_1
 62
1
100
AcDbSpline
 70
8
 71
3
 72
8
 73
4
 74
0
 40
0
 40
0
 40
0
 40
0
 40
1
 40
1
 40
1
 40
1
 10
708.132294
 20
691.278649
 30
0.0
 10
706.765280
 20
689.911283
 30
0.0
 10
704.549483
 20
689.911283
 30
0.0
 10
703.182116
 20
691.278649
 30
0.0
  0
SPLINE
  5
15c
100
AcDbEntity
  8
Layer_1
 62
1
100
AcDbSpline
 70
8
 71
3
 72
8
 73
4
 74
0
 40
0
 40
0
 40
0
 40
0
 40
1
 40
1
 40
1
 40
1
 10
703.182116
 20
691.278649
 30
0.0
 10
701.815455
 20
692.645311
 30
0.0
 10
701.815102
 20
694.861461
 30
0.0
 10
703.182469
 20
696.228474
 30
0.0
  0
LWPOLYLINE
  5
15d
100
AcDbEntity
  8
Layer_1
 62
1
100
AcDbPolyline
 90
2
 70
1
 10
518.240447
 20
772.834663
 30
0.0
 10
518.240447
 20
772.834663
 30
0.0
  0
SPLINE
  5
15e
100
AcDbEntity
  8
Layer_1
 62
1
100
AcDbSpline
 70
8
 71
3
 72
8
 73
4
 74
0
 40
0
 40
0
 40
0
 40
0
 40
1
 40
1
 40
1
 40
1
 10
321.347373
 20
314.396660
 30
0.0
 10
322.713682
 20
315.762968
 30
0.0
 10
324.930537
 20
315.763674
 30
0.0
 10
326.297198
 20
314.396660
 30
0.0
  0
SPLINE
  5
15f
100
AcDbEntity
  8
Layer_1
 62
1
100
AcDbSpline
 70
8
 71
3
 72
8
 73
4
 74
0
 40
0
 40
0
 40
0
 40
0
 40
1
 40
1
 40
1
 40
1
 10
326.297198
 20
314.396660
 30
0.0
 10
327.664565
 20
313.029646
 30
0.0
 10
327.663507
 20
310.813849
 30
0.0
 10
326.297198
 20
309.446835
 30
0.0
  0
SPLINE
  5
160
100
AcDbEntity
  8
Layer_1
 62
1
100
AcDbSpline
 70
8
 71
3
 72
8
 73
4
 74
0
 40
0
 40
0
 40
0
 40
0
 40
1
 40
1
 40
1
 40
1
 10
326.297198
 20
309.446835
 30
0.0
 10
324.930537
 20
308.079821
 30
0.0
 10
322.714387
 20
308.079821
 30
0.0
 10
321.347373
 20
309.446835
 30
0.0
  0
SPLINE
  5
161
100
AcDbEntity
  8
Layer_1
 62
1
100
AcDbSpline
 70
8
 71
3
 72
8
 73
4
 74
0
 40
0
 40
0
 40
0
 40
0
 40
1
 40
1
 40
1
 40
1
 10
321.347373
 20
309.446835
 30
0.0
 10
319.980359
 20
310.813849
 30
0.0
 10
319.980359
 20
313.029646
 30
0.0
 10
321.347373
 20
314.396660
 30
0.0
  0
LWPOLYLINE
  5
162
100
AcDbEntity
  8
Layer_1
 62
1
100
AcDbPolyline
 90
2
 70
1
 10
703.182469
 20
696.228474
 30
0.0
 10
703.182469
 20
696.228474
 30
0.0
  0
SPLINE
  5
163
100
AcDbEntity
  8
Layer_1
 62
1
100
AcDbSpline
 70
8
 71
3
 72
8
 73
4
 74
0
 40
0
 40
0
 40
0
 40
0
 40
1
 40
1
 40
1
 40
1
 10
765.539045
 20
402.787813
 30
0.0
 10
767.325159
 20
402.048391
 30
0.0
 10
768.173943
 20
400.000869
 30
0.0
 10
767.433815
 20
398.214755
 30
0.0
  0
SPLINE
  5
164
100
AcDbEntity
  8
Layer_1
 62
1
100
AcDbSpline
 70
8
 71
3
 72
8
 73
4
 74
0
 40
0
 40
0
 40
0
 40
0
 40
1
 40
1
 40
1
 40
1
 10
767.433815
 20
398.214755
 30
0.0
 10
766.694393
 20
396.428994
 30
0.0
 10
764.647576
 20
395.580563
 30
0.0
 10
762.861815
 20
396.319985
 30
0.0
  0
SPLINE
  5
165
100
AcDbEntity
  8
Layer_1
 62
1
100
AcDbSpline
 70
8
 71
3
 72
8
 73
4
 74
0
 40
0
 40
0
 40
0
 40
0
 40
1
 40
1
 40
1
 40
1
 10
762.861815
 20
396.319985
 30
0.0
 10
761.075348
 20
397.059408
 30
0.0
 10
760.226565
 20
399.106224
 30
0.0
 10
760.966340
 20
400.893044
 30
0.0
  0
SPLINE
  5
166
100
AcDbEntity
  8
Layer_1
 62
1
100
AcDbSpline
 70
8
 71
3
 72
8
 73
4
 74
0
 40
0
 40
0
 40
0
 40
0
 40
1
 40
1
 40
1
 40
1
 10
760.966340
 20
400.893044
 30
0.0
 10
761.705762
 20
402.678099
 30
0.0
 10
763.753284
 20
403.527941
 30
0.0
 10
765.539045
 20
402.787813
 30
0.0
  0
LWPOLYLINE
  5
167
100
AcDbEntity
  8
Layer_1
 62
1
100
AcDbPolyline
 90
2
 70
1
 10
321.347373
 20
314.396660
 30
0.0
 10
321.347373
 20
314.396660
 30
0.0
  0
SPLINE
  5
168
100
AcDbEntity
  8
Layer_1
 62
1
100
AcDbSpline
 70
8
 71
3
 72
8
 73
4
 74
0
 40
0
 40
0
 40
0
 40
0
 40
1
 40
1
 40
1
 40
1
 10
266.617217
 20
609.355924
 30
0.0
 10
268.402978
 20
608.616501
 30
0.0
 10
269.252114
 20
606.568626
 30
0.0
 10
268.512692
 20
604.782865
 30
0.0
  0
SPLINE
  5
169
100
AcDbEntity
  8
Layer_1
 62
1
100
AcDbSpline
 70
8
 71
3
 72
8
 73
4
 74
0
 40
0
 40
0
 40
0
 40
0
 40
1
 40
1
 40
1
 40
1
 10
268.512692
 20
604.782865
 30
0.0
 10
267.772917
 20
602.996399
 30
0.0
 10
265.725395
 20
602.148674
 30
0.0
 10
263.939634
 20
602.887743
 30
0.0
  0
SPLINE
  5
16a
100
AcDbEntity
  8
Layer_1
 62
1
100
AcDbSpline
 70
8
 71
3
 72
8
 73
4
 74
0
 40
0
 40
0
 40
0
 40
0
 40
1
 40
1
 40
1
 40
1
 10
263.939634
 20
602.887743
 30
0.0
 10
262.153520
 20
603.627165
 30
0.0
 10
261.304737
 20
605.674688
 30
0.0
 10
262.044512
 20
607.460801
 30
0.0
  0
SPLINE
  5
16b
100
AcDbEntity
  8
Layer_1
 62
1
100
AcDbSpline
 70
8
 71
3
 72
8
 73
4
 74
0
 40
0
 40
0
 40
0
 40
0
 40
1
 40
1
 40
1
 40
1
 10
262.044512
 20
607.460801
 30
0.0
 10
262.783934
 20
609.246915
 30
0.0
 10
264.831456
 20
610.095346
 30
0.0
 10
266.617217
 20
609.355924
 30
0.0
  0
LWPOLYLINE
  5
16c
100
AcDbEntity
  8
Layer_1
 62
1
100
AcDbPolyline
 90
2
 70
1
 10
765.539045
 20
402.787813
 30
0.0
 10
765.539045
 20
402.787813
 30
0.0
  0
SPLINE
  5
16d
100
AcDbEntity
  8
Layer_1
 62
1
100
AcDbSpline
 70
8
 71
3
 72
8
 73
4
 74
0
 40
0
 40
0
 40
0
 40
0
 40
1
 40
1
 40
1
 40
1
 10
762.828442
 20
609.434134
 30
0.0
 10
764.613498
 20
610.173557
 30
0.0
 10
766.661725
 20
609.325832
 30
0.0
 10
767.401853
 20
607.540423
 30
0.0
  0
SPLINE
  5
16e
100
AcDbEntity
  8
Layer_1
 62
1
100
AcDbSpline
 70
8
 71
3
 72
8
 73
4
 74
0
 40
0
 40
0
 40
0
 40
0
 40
1
 40
1
 40
1
 40
1
 10
767.401853
 20
607.540423
 30
0.0
 10
768.141981
 20
605.754662
 30
0.0
 10
767.293550
 20
603.707140
 30
0.0
 10
765.508495
 20
602.966659
 30
0.0
  0
SPLINE
  5
16f
100
AcDbEntity
  8
Layer_1
 62
1
100
AcDbSpline
 70
8
 71
3
 72
8
 73
4
 74
0
 40
0
 40
0
 40
0
 40
0
 40
1
 40
1
 40
1
 40
1
 10
765.508495
 20
602.966659
 30
0.0
 10
763.722028
 20
602.227237
 30
0.0
 10
761.674506
 20
603.074257
 30
0.0
 10
760.934731
 20
604.860723
 30
0.0
  0
SPLINE
  5
170
100
AcDbEntity
  8
Layer_1
 62
1
100
AcDbSpline
 70
8
 71
3
 72
8
 73
4
 74
0
 40
0
 40
0
 40
0
 40
0
 40
1
 40
1
 40
1
 40
1
 10
760.934731
 20
604.860723
 30
0.0
 10
760.194250
 20
606.646484
 30
0.0
 10
761.041975
 20
608.694007
 30
0.0
 10
762.828442
 20
609.434134
 30
0.0
  0
LWPOLYLINE
  5
171
100
AcDbEntity
  8
Layer_1
 62
1
100
AcDbPolyline
 90
2
 70
1
 10
266.617217
 20
609.355924
 30
0.0
 10
266.617217
 20
609.355924
 30
0.0
  0
SPLINE
  5
172
100
AcDbEntity
  8
Layer_1
 62
1
100
AcDbSpline
 70
8
 71
3
 72
8
 73
4
 74
0
 40
0
 40
0
 40
0
 40
0
 40
1
 40
1
 40
1
 40
1
 10
263.971384
 20
402.708579
 30
0.0
 10
265.757145
 20
403.448707
 30
0.0
 10
267.805020
 20
402.600982
 30
0.0
 10
268.544442
 20
400.814515
 30
0.0
  0
SPLINE
  5
173
100
AcDbEntity
  8
Layer_1
 62
1
100
AcDbSpline
 70
8
 71
3
 72
8
 73
4
 74
0
 40
0
 40
0
 40
0
 40
0
 40
1
 40
1
 40
1
 40
1
 10
268.544442
 20
400.814515
 30
0.0
 10
269.285275
 20
399.029107
 30
0.0
 10
268.437198
 20
396.981585
 30
0.0
 10
266.651084
 20
396.242163
 30
0.0
  0
SPLINE
  5
174
100
AcDbEntity
  8
Layer_1
 62
1
100
AcDbSpline
 70
8
 71
3
 72
8
 73
4
 74
0
 40
0
 40
0
 40
0
 40
0
 40
1
 40
1
 40
1
 40
1
 10
266.651084
 20
396.242163
 30
0.0
 10
264.865323
 20
395.502035
 30
0.0
 10
262.817448
 20
396.349760
 30
0.0
 10
262.077673
 20
398.134815
 30
0.0
  0
SPLINE
  5
175
100
AcDbEntity
  8
Layer_1
 62
1
100
AcDbSpline
 70
8
 71
3
 72
8
 73
4
 74
0
 40
0
 40
0
 40
0
 40
0
 40
1
 40
1
 40
1
 40
1
 10
262.077673
 20
398.134815
 30
0.0
 10
261.337898
 20
399.920929
 30
0.0
 10
262.185270
 20
401.968451
 30
0.0
 10
263.971384
 20
402.708579
 30
0.0
  0
LWPOLYLINE
  5
176
100
AcDbEntity
  8
Layer_1
 62
1
100
AcDbPolyline
 90
2
 70
1
 10
762.828442
 20
609.434134
 30
0.0
 10
762.828442
 20
609.434134
 30
0.0
  0
SPLINE
  5
177
100
AcDbEntity
  8
Layer_1
 62
1
100
AcDbSpline
 70
8
 71
3
 72
8
 73
4
 74
0
 40
0
 40
0
 40
0
 40
0
 40
1
 40
1
 40
1
 40
1
 10
621.335625
 20
254.749663
 30
0.0
 10
622.075753
 20
252.963902
 30
0.0
 10
621.227675
 20
250.916027
 30
0.0
 10
619.442267
 20
250.175899
 30
0.0
  0
SPLINE
  5
178
100
AcDbEntity
  8
Layer_1
 62
1
100
AcDbSpline
 70
8
 71
3
 72
8
 73
4
 74
0
 40
0
 40
0
 40
0
 40
0
 40
1
 40
1
 40
1
 40
1
 10
619.442267
 20
250.175899
 30
0.0
 10
617.656153
 20
249.435419
 30
0.0
 10
615.608984
 20
250.284202
 30
0.0
 10
614.868503
 20
252.069258
 30
0.0
  0
SPLINE
  5
179
100
AcDbEntity
  8
Layer_1
 62
1
100
AcDbSpline
 70
8
 71
3
 72
8
 73
4
 74
0
 40
0
 40
0
 40
0
 40
0
 40
1
 40
1
 40
1
 40
1
 10
614.868503
 20
252.069258
 30
0.0
 10
614.128375
 20
253.856077
 30
0.0
 10
614.976100
 20
255.903247
 30
0.0
 10
616.762567
 20
256.643022
 30
0.0
  0
SPLINE
  5
17a
100
AcDbEntity
  8
Layer_1
 62
1
100
AcDbSpline
 70
8
 71
3
 72
8
 73
4
 74
0
 40
0
 40
0
 40
0
 40
0
 40
1
 40
1
 40
1
 40
1
 10
616.762567
 20
256.643022
 30
0.0
 10
618.548328
 20
257.383149
 30
0.0
 10
620.595498
 20
256.535424
 30
0.0
 10
621.335625
 20
254.749663
 30
0.0
  0
LWPOLYLINE
  5
17b
100
AcDbEntity
  8
Layer_1
 62
1
100
AcDbPolyline
 90
2
 70
1
 10
263.971384
 20
402.708579
 30
0.0
 10
263.971384
 20
402.708579
 30
0.0
  0
SPLINE
  5
17c
100
AcDbEntity
  8
Layer_1
 62
1
100
AcDbSpline
 70
8
 71
3
 72
8
 73
4
 74
0
 40
0
 40
0
 40
0
 40
0
 40
1
 40
1
 40
1
 40
1
 10
414.610247
 20
753.606193
 30
0.0
 10
415.350374
 20
751.820431
 30
0.0
 10
414.502649
 20
749.772556
 30
0.0
 10
412.716888
 20
749.032781
 30
0.0
  0
SPLINE
  5
17d
100
AcDbEntity
  8
Layer_1
 62
1
100
AcDbSpline
 70
8
 71
3
 72
8
 73
4
 74
0
 40
0
 40
0
 40
0
 40
0
 40
1
 40
1
 40
1
 40
1
 10
412.716888
 20
749.032781
 30
0.0
 10
410.930422
 20
748.292301
 30
0.0
 10
408.883252
 20
749.140731
 30
0.0
 10
408.143477
 20
750.926140
 30
0.0
  0
SPLINE
  5
17e
100
AcDbEntity
  8
Layer_1
 62
1
100
AcDbSpline
 70
8
 71
3
 72
8
 73
4
 74
0
 40
0
 40
0
 40
0
 40
0
 40
1
 40
1
 40
1
 40
1
 10
408.143477
 20
750.926140
 30
0.0
 10
407.403349
 20
752.712606
 30
0.0
 10
408.251074
 20
754.759776
 30
0.0
 10
410.036835
 20
755.499904
 30
0.0
  0
SPLINE
  5
17f
100
AcDbEntity
  8
Layer_1
 62
1
100
AcDbSpline
 70
8
 71
3
 72
8
 73
4
 74
0
 40
0
 40
0
 40
0
 40
0
 40
1
 40
1
 40
1
 40
1
 10
410.036835
 20
755.499904
 30
0.0
 10
411.822244
 20
756.239679
 30
0.0
 10
413.869413
 20
755.391954
 30
0.0
 10
414.610247
 20
753.606193
 30
0.0
  0
LWPOLYLINE
  5
180
100
AcDbEntity
  8
Layer_1
 62
1
100
AcDbPolyline
 90
2
 70
1
 10
621.335625
 20
254.749663
 30
0.0
 10
621.335625
 20
254.749663
 30
0.0
  0
SPLINE
  5
181
100
AcDbEntity
  8
Layer_1
 62
1
100
AcDbSpline
 70
8
 71
3
 72
8
 73
4
 74
0
 40
0
 40
0
 40
0
 40
0
 40
1
 40
1
 40
1
 40
1
 10
614.789940
 20
753.637378
 30
0.0
 10
615.529362
 20
755.423845
 30
0.0
 10
617.576884
 20
756.271923
 30
0.0
 10
619.362645
 20
755.532853
 30
0.0
  0
SPLINE
  5
182
100
AcDbEntity
  8
Layer_1
 62
1
100
AcDbSpline
 70
8
 71
3
 72
8
 73
4
 74
0
 40
0
 40
0
 40
0
 40
0
 40
1
 40
1
 40
1
 40
1
 10
619.362645
 20
755.532853
 30
0.0
 10
621.149112
 20
754.792725
 30
0.0
 10
621.996837
 20
752.745909
 30
0.0
 10
621.258120
 20
750.959795
 30
0.0
  0
SPLINE
  5
183
100
AcDbEntity
  8
Layer_1
 62
1
100
AcDbSpline
 70
8
 71
3
 72
8
 73
4
 74
0
 40
0
 40
0
 40
0
 40
0
 40
1
 40
1
 40
1
 40
1
 10
621.258120
 20
750.959795
 30
0.0
 10
620.517992
 20
749.173681
 30
0.0
 10
618.471176
 20
748.325250
 30
0.0
 10
616.685062
 20
749.064673
 30
0.0
  0
SPLINE
  5
184
100
AcDbEntity
  8
Layer_1
 62
1
100
AcDbSpline
 70
8
 71
3
 72
8
 73
4
 74
0
 40
0
 40
0
 40
0
 40
0
 40
1
 40
1
 40
1
 40
1
 10
616.685062
 20
749.064673
 30
0.0
 10
614.898948
 20
749.804095
 30
0.0
 10
614.050165
 20
751.851264
 30
0.0
 10
614.789940
 20
753.637378
 30
0.0
  0
LWPOLYLINE
  5
185
100
AcDbEntity
  8
Layer_1
 62
1
100
AcDbPolyline
 90
2
 70
1
 10
414.610247
 20
753.606193
 30
0.0
 10
414.610247
 20
753.606193
 30
0.0
  0
SPLINE
  5
186
100
AcDbEntity
  8
Layer_1
 62
1
100
AcDbSpline
 70
8
 71
3
 72
8
 73
4
 74
0
 40
0
 40
0
 40
0
 40
0
 40
1
 40
1
 40
1
 40
1
 10
408.222005
 20
254.715197
 30
0.0
 10
408.961075
 20
256.500958
 30
0.0
 10
411.008597
 20
257.350094
 30
0.0
 10
412.794711
 20
256.610672
 30
0.0
  0
SPLINE
  5
187
100
AcDbEntity
  8
Layer_1
 62
1
100
AcDbSpline
 70
8
 71
3
 72
8
 73
4
 74
0
 40
0
 40
0
 40
0
 40
0
 40
1
 40
1
 40
1
 40
1
 10
412.794711
 20
256.610672
 30
0.0
 10
414.580825
 20
255.871250
 30
0.0
 10
415.428903
 20
253.823728
 30
0.0
 10
414.689833
 20
252.037614
 30
0.0
  0
SPLINE
  5
188
100
AcDbEntity
  8
Layer_1
 62
1
100
AcDbSpline
 70
8
 71
3
 72
8
 73
4
 74
0
 40
0
 40
0
 40
0
 40
0
 40
1
 40
1
 40
1
 40
1
 10
414.689833
 20
252.037614
 30
0.0
 10
413.950058
 20
250.251853
 30
0.0
 10
411.903242
 20
249.402716
 30
0.0
 10
410.116422
 20
250.142844
 30
0.0
  0
SPLINE
  5
189
100
AcDbEntity
  8
Layer_1
 62
1
100
AcDbSpline
 70
8
 71
3
 72
8
 73
4
 74
0
 40
0
 40
0
 40
0
 40
0
 40
1
 40
1
 40
1
 40
1
 10
410.116422
 20
250.142844
 30
0.0
 10
408.331014
 20
250.882266
 30
0.0
 10
407.482230
 20
252.929436
 30
0.0
 10
408.222005
 20
254.715197
 30
0.0
  0
LWPOLYLINE
  5
18a
100
AcDbEntity
  8
Layer_1
 62
1
100
AcDbPolyline
 90
2
 70
1
 10
614.789940
 20
753.637378
 30
0.0
 10
614.789940
 20
753.637378
 30
0.0
  0
SPLINE
  5
18b
100
AcDbEntity
  8
Layer_1
 62
1
100
AcDbSpline
 70
8
 71
3
 72
8
 73
4
 74
0
 40
0
 40
0
 40
0
 40
0
 40
1
 40
1
 40
1
 40
1
 10
676.310362
 20
346.215204
 30
0.0
 10
677.677024
 20
344.847485
 30
0.0
 10
677.677024
 20
342.631688
 30
0.0
 10
676.310362
 20
341.264674
 30
0.0
  0
SPLINE
  5
18c
100
AcDbEntity
  8
Layer_1
 62
1
100
AcDbSpline
 70
8
 71
3
 72
8
 73
4
 74
0
 40
0
 40
0
 40
0
 40
0
 40
1
 40
1
 40
1
 40
1
 10
676.310362
 20
341.264674
 30
0.0
 10
674.943349
 20
339.898366
 30
0.0
 10
672.727551
 20
339.898366
 30
0.0
 10
671.360537
 20
341.265379
 30
0.0
  0
SPLINE
  5
18d
100
AcDbEntity
  8
Layer_1
 62
1
100
AcDbSpline
 70
8
 71
3
 72
8
 73
4
 74
0
 40
0
 40
0
 40
0
 40
0
 40
1
 40
1
 40
1
 40
1
 10
671.360537
 20
341.265379
 30
0.0
 10
669.993524
 20
342.631688
 30
0.0
 10
669.993876
 20
344.847485
 30
0.0
 10
671.360537
 20
346.213793
 30
0.0
  0
SPLINE
  5
18e
100
AcDbEntity
  8
Layer_1
 62
1
100
AcDbSpline
 70
8
 71
3
 72
8
 73
4
 74
0
 40
0
 40
0
 40
0
 40
0
 40
1
 40
1
 40
1
 40
1
 10
671.360537
 20
346.213793
 30
0.0
 10
672.727551
 20
347.581513
 30
0.0
 10
674.943349
 20
347.581513
 30
0.0
 10
676.310362
 20
346.215204
 30
0.0
  0
LWPOLYLINE
  5
18f
100
AcDbEntity
  8
Layer_1
 62
1
100
AcDbPolyline
 90
2
 70
1
 10
408.222005
 20
254.715197
 30
0.0
 10
408.222005
 20
254.715197
 30
0.0
  0
SPLINE
  5
190
100
AcDbEntity
  8
Layer_1
 62
1
100
AcDbSpline
 70
8
 71
3
 72
8
 73
4
 74
0
 40
0
 40
0
 40
0
 40
0
 40
1
 40
1
 40
1
 40
1
 10
358.118248
 20
664.410776
 30
0.0
 10
359.484909
 20
663.044115
 30
0.0
 10
359.484556
 20
660.827965
 30
0.0
 10
358.117895
 20
659.460951
 30
0.0
  0
SPLINE
  5
191
100
AcDbEntity
  8
Layer_1
 62
1
100
AcDbSpline
 70
8
 71
3
 72
8
 73
4
 74
0
 40
0
 40
0
 40
0
 40
0
 40
1
 40
1
 40
1
 40
1
 10
358.117895
 20
659.460951
 30
0.0
 10
356.750528
 20
658.093585
 30
0.0
 10
354.535084
 20
658.094290
 30
0.0
 10
353.168423
 20
659.460951
 30
0.0
  0
SPLINE
  5
192
100
AcDbEntity
  8
Layer_1
 62
1
100
AcDbSpline
 70
8
 71
3
 72
8
 73
4
 74
0
 40
0
 40
0
 40
0
 40
0
 40
1
 40
1
 40
1
 40
1
 10
353.168423
 20
659.460951
 30
0.0
 10
351.801409
 20
660.827613
 30
0.0
 10
351.801056
 20
663.043763
 30
0.0
 10
353.168423
 20
664.410776
 30
0.0
  0
SPLINE
  5
193
100
AcDbEntity
  8
Layer_1
 62
1
100
AcDbSpline
 70
8
 71
3
 72
8
 73
4
 74
0
 40
0
 40
0
 40
0
 40
0
 40
1
 40
1
 40
1
 40
1
 10
353.168423
 20
664.410776
 30
0.0
 10
354.535084
 20
665.777790
 30
0.0
 10
356.751234
 20
665.777790
 30
0.0
 10
358.118248
 20
664.410776
 30
0.0
  0
LWPOLYLINE
  5
194
100
AcDbEntity
  8
Layer_1
 62
1
100
AcDbPolyline
 90
2
 70
1
 10
676.310362
 20
346.215204
 30
0.0
 10
676.310362
 20
346.215204
 30
0.0
  0
SPLINE
  5
195
100
AcDbEntity
  8
Layer_1
 62
1
100
AcDbSpline
 70
8
 71
3
 72
8
 73
4
 74
0
 40
0
 40
0
 40
0
 40
0
 40
1
 40
1
 40
1
 40
1
 10
739.736667
 20
506.336558
 30
0.0
 10
741.670242
 20
506.336205
 30
0.0
 10
743.237281
 20
504.768813
 30
0.0
 10
743.237281
 20
502.835944
 30
0.0
  0
SPLINE
  5
196
100
AcDbEntity
  8
Layer_1
 62
1
100
AcDbSpline
 70
8
 71
3
 72
8
 73
4
 74
0
 40
0
 40
0
 40
0
 40
0
 40
1
 40
1
 40
1
 40
1
 10
743.237281
 20
502.835944
 30
0.0
 10
743.237281
 20
500.902721
 30
0.0
 10
741.669537
 20
499.336035
 30
0.0
 10
739.736667
 20
499.336741
 30
0.0
  0
SPLINE
  5
197
100
AcDbEntity
  8
Layer_1
 62
1
100
AcDbSpline
 70
8
 71
3
 72
8
 73
4
 74
0
 40
0
 40
0
 40
0
 40
0
 40
1
 40
1
 40
1
 40
1
 10
739.736667
 20
499.336741
 30
0.0
 10
737.803798
 20
499.336035
 30
0.0
 10
736.237464
 20
500.903427
 30
0.0
 10
736.237464
 20
502.835944
 30
0.0
  0
SPLINE
  5
198
100
AcDbEntity
  8
Layer_1
 62
1
100
AcDbSpline
 70
8
 71
3
 72
8
 73
4
 74
0
 40
0
 40
0
 40
0
 40
0
 40
1
 40
1
 40
1
 40
1
 10
736.237464
 20
502.835944
 30
0.0
 10
736.236759
 20
504.769166
 30
0.0
 10
737.803798
 20
506.335852
 30
0.0
 10
739.736667
 20
506.336558
 30
0.0
  0
LWPOLYLINE
  5
199
100
AcDbEntity
  8
Layer_1
 62
1
100
AcDbPolyline
 90
2
 70
1
 10
358.118248
 20
664.410776
 30
0.0
 10
358.118248
 20
664.410776
 30
0.0
  0
SPLINE
  5
19a
100
AcDbEntity
  8
Layer_1
 62
1
100
AcDbSpline
 70
8
 71
3
 72
8
 73
4
 74
0
 40
0
 40
0
 40
0
 40
0
 40
1
 40
1
 40
1
 40
1
 10
289.742083
 20
506.339309
 30
0.0
 10
291.675305
 20
506.339309
 30
0.0
 10
293.241638
 20
504.771918
 30
0.0
 10
293.242344
 20
502.838695
 30
0.0
  0
SPLINE
  5
19b
100
AcDbEntity
  8
Layer_1
 62
1
100
AcDbSpline
 70
8
 71
3
 72
8
 73
4
 74
0
 40
0
 40
0
 40
0
 40
0
 40
1
 40
1
 40
1
 40
1
 10
293.242344
 20
502.838695
 30
0.0
 10
293.241638
 20
500.905473
 30
0.0
 10
291.675305
 20
499.339493
 30
0.0
 10
289.742083
 20
499.338787
 30
0.0
  0
SPLINE
  5
19c
100
AcDbEntity
  8
Layer_1
 62
1
100
AcDbSpline
 70
8
 71
3
 72
8
 73
4
 74
0
 40
0
 40
0
 40
0
 40
0
 40
1
 40
1
 40
1
 40
1
 10
289.742083
 20
499.338787
 30
0.0
 10
287.808860
 20
499.338787
 30
0.0
 10
286.242527
 20
500.905473
 30
0.0
 10
286.241822
 20
502.839401
 30
0.0
  0
SPLINE
  5
19d
100
AcDbEntity
  8
Layer_1
 62
1
100
AcDbSpline
 70
8
 71
3
 72
8
 73
4
 74
0
 40
0
 40
0
 40
0
 40
0
 40
1
 40
1
 40
1
 40
1
 10
286.241822
 20
502.839401
 30
0.0
 10
286.242527
 20
504.771918
 30
0.0
 10
287.809213
 20
506.339309
 30
0.0
 10
289.742083
 20
506.339309
 30
0.0
  0
LWPOLYLINE
  5
19e
100
AcDbEntity
  8
Layer_1
 62
1
100
AcDbPolyline
 90
2
 70
1
 10
739.736667
 20
506.336558
 30
0.0
 10
739.736667
 20
506.336558
 30
0.0
  0
SPLINE
  5
19f
100
AcDbEntity
  8
Layer_1
 62
1
100
AcDbSpline
 70
8
 71
3
 72
8
 73
4
 74
0
 40
0
 40
0
 40
0
 40
0
 40
1
 40
1
 40
1
 40
1
 10
518.238366
 20
277.840063
 30
0.0
 10
518.238013
 20
275.907193
 30
0.0
 10
516.670269
 20
274.340507
 30
0.0
 10
514.737752
 20
274.340507
 30
0.0
  0
SPLINE
  5
1a0
100
AcDbEntity
  8
Layer_1
 62
1
100
AcDbSpline
 70
8
 71
3
 72
8
 73
4
 74
0
 40
0
 40
0
 40
0
 40
0
 40
1
 40
1
 40
1
 40
1
 10
514.737752
 20
274.340507
 30
0.0
 10
512.804883
 20
274.340507
 30
0.0
 10
511.238549
 20
275.906840
 30
0.0
 10
511.237491
 20
277.840768
 30
0.0
  0
SPLINE
  5
1a1
100
AcDbEntity
  8
Layer_1
 62
1
100
AcDbSpline
 70
8
 71
3
 72
8
 73
4
 74
0
 40
0
 40
0
 40
0
 40
0
 40
1
 40
1
 40
1
 40
1
 10
511.237491
 20
277.840768
 30
0.0
 10
511.237491
 20
279.773285
 30
0.0
 10
512.804883
 20
281.339618
 30
0.0
 10
514.737399
 20
281.340324
 30
0.0
  0
SPLINE
  5
1a2
100
AcDbEntity
  8
Layer_1
 62
1
100
AcDbSpline
 70
8
 71
3
 72
8
 73
4
 74
0
 40
0
 40
0
 40
0
 40
0
 40
1
 40
1
 40
1
 40
1
 10
514.737399
 20
281.340324
 30
0.0
 10
516.671327
 20
281.339618
 30
0.0
 10
518.238013
 20
279.773285
 30
0.0
 10
518.238366
 20
277.840063
 30
0.0
  0
LWPOLYLINE
  5
1a3
100
AcDbEntity
  8
Layer_1
 62
1
100
AcDbPolyline
 90
2
 70
1
 10
289.742083
 20
506.339309
 30
0.0
 10
289.742083
 20
506.339309
 30
0.0
  0
SPLINE
  5
1a4
100
AcDbEntity
  8
Layer_1
 62
1
100
AcDbSpline
 70
8
 71
3
 72
8
 73
4
 74
0
 40
0
 40
0
 40
0
 40
0
 40
1
 40
1
 40
1
 40
1
 10
518.240447
 20
727.835000
 30
0.0
 10
518.240800
 20
725.902130
 30
0.0
 10
516.674114
 20
724.335444
 30
0.0
 10
514.740539
 20
724.335444
 30
0.0
  0
SPLINE
  5
1a5
100
AcDbEntity
  8
Layer_1
 62
1
100
AcDbSpline
 70
8
 71
3
 72
8
 73
4
 74
0
 40
0
 40
0
 40
0
 40
0
 40
1
 40
1
 40
1
 40
1
 10
514.740539
 20
724.335444
 30
0.0
 10
512.807317
 20
724.335444
 30
0.0
 10
511.240984
 20
725.902130
 30
0.0
 10
511.240631
 20
727.835000
 30
0.0
  0
SPLINE
  5
1a6
100
AcDbEntity
  8
Layer_1
 62
1
100
AcDbSpline
 70
8
 71
3
 72
8
 73
4
 74
0
 40
0
 40
0
 40
0
 40
0
 40
1
 40
1
 40
1
 40
1
 10
511.240631
 20
727.835000
 30
0.0
 10
511.240631
 20
729.768222
 30
0.0
 10
512.807317
 20
731.334908
 30
0.0
 10
514.740892
 20
731.334908
 30
0.0
  0
SPLINE
  5
1a7
100
AcDbEntity
  8
Layer_1
 62
1
100
AcDbSpline
 70
8
 71
3
 72
8
 73
4
 74
0
 40
0
 40
0
 40
0
 40
0
 40
1
 40
1
 40
1
 40
1
 10
514.740892
 20
731.334908
 30
0.0
 10
516.674467
 20
731.334908
 30
0.0
 10
518.240447
 20
729.768222
 30
0.0
 10
518.240447
 20
727.835000
 30
0.0
  0
LWPOLYLINE
  5
1a8
100
AcDbEntity
  8
Layer_1
 62
1
100
AcDbPolyline
 90
2
 70
1
 10
518.238366
 20
277.840063
 30
0.0
 10
518.238366
 20
277.840063
 30
0.0
  0
SPLINE
  5
1a9
100
AcDbEntity
  8
Layer_1
 62
1
100
AcDbSpline
 70
8
 71
3
 72
8
 73
4
 74
0
 40
0
 40
0
 40
0
 40
0
 40
1
 40
1
 40
1
 40
1
 10
671.362513
 20
664.408907
 30
0.0
 10
672.729880
 20
665.775921
 30
0.0
 10
674.946382
 20
665.775215
 30
0.0
 10
676.312691
 20
664.408907
 30
0.0
  0
SPLINE
  5
1aa
100
AcDbEntity
  8
Layer_1
 62
1
100
AcDbSpline
 70
8
 71
3
 72
8
 73
4
 74
0
 40
0
 40
0
 40
0
 40
0
 40
1
 40
1
 40
1
 40
1
 10
676.312691
 20
664.408907
 30
0.0
 10
677.679705
 20
663.041893
 30
0.0
 10
677.679705
 20
660.826096
 30
0.0
 10
676.312691
 20
659.458729
 30
0.0
  0
SPLINE
  5
1ab
100
AcDbEntity
  8
Layer_1
 62
1
100
AcDbSpline
 70
8
 71
3
 72
8
 73
4
 74
0
 40
0
 40
0
 40
0
 40
0
 40
1
 40
1
 40
1
 40
1
 10
676.312691
 20
659.458729
 30
0.0
 10
674.946382
 20
658.092068
 30
0.0
 10
672.730585
 20
658.092068
 30
0.0
 10
671.363571
 20
659.459082
 30
0.0
  0
SPLINE
  5
1ac
100
AcDbEntity
  8
Layer_1
 62
1
100
AcDbSpline
 70
8
 71
3
 72
8
 73
4
 74
0
 40
0
 40
0
 40
0
 40
0
 40
1
 40
1
 40
1
 40
1
 10
671.363571
 20
659.459082
 30
0.0
 10
669.996205
 20
660.826096
 30
0.0
 10
669.996557
 20
663.041893
 30
0.0
 10
671.362513
 20
664.408907
 30
0.0
  0
LWPOLYLINE
  5
1ad
100
AcDbEntity
  8
Layer_1
 62
1
100
AcDbPolyline
 90
2
 70
1
 10
518.240447
 20
727.835000
 30
0.0
 10
518.240447
 20
727.835000
 30
0.0
  0
SPLINE
  5
1ae
100
AcDbEntity
  8
Layer_1
 62
1
100
AcDbSpline
 70
8
 71
3
 72
8
 73
4
 74
0
 40
0
 40
0
 40
0
 40
0
 40
1
 40
1
 40
1
 40
1
 10
353.166976
 20
346.216616
 30
0.0
 10
354.533285
 20
347.582924
 30
0.0
 10
356.749787
 20
347.582924
 30
0.0
 10
358.116801
 20
346.216616
 30
0.0
  0
SPLINE
  5
1af
100
AcDbEntity
  8
Layer_1
 62
1
100
AcDbSpline
 70
8
 71
3
 72
8
 73
4
 74
0
 40
0
 40
0
 40
0
 40
0
 40
1
 40
1
 40
1
 40
1
 10
358.116801
 20
346.216616
 30
0.0
 10
359.483462
 20
344.848896
 30
0.0
 10
359.483110
 20
342.633804
 30
0.0
 10
358.116801
 20
341.266791
 30
0.0
  0
SPLINE
  5
1b0
100
AcDbEntity
  8
Layer_1
 62
1
100
AcDbSpline
 70
8
 71
3
 72
8
 73
4
 74
0
 40
0
 40
0
 40
0
 40
0
 40
1
 40
1
 40
1
 40
1
 10
358.116801
 20
341.266791
 30
0.0
 10
356.749787
 20
339.899777
 30
0.0
 10
354.533990
 20
339.899777
 30
0.0
 10
353.166976
 20
341.266791
 30
0.0
  0
SPLINE
  5
1b1
100
AcDbEntity
  8
Layer_1
 62
1
100
AcDbSpline
 70
8
 71
3
 72
8
 73
4
 74
0
 40
0
 40
0
 40
0
 40
0
 40
1
 40
1
 40
1
 40
1
 10
353.166976
 20
341.266791
 30
0.0
 10
351.799962
 20
342.633804
 30
0.0
 10
351.799962
 20
344.849602
 30
0.0
 10
353.166976
 20
346.216616
 30
0.0
  0
LWPOLYLINE
  5
1b2
100
AcDbEntity
  8
Layer_1
 62
1
100
AcDbPolyline
 90
2
 70
1
 10
671.362513
 20
664.408907
 30
0.0
 10
671.362513
 20
664.408907
 30
0.0
  0
SPLINE
  5
1b3
100
AcDbEntity
  8
Layer_1
 62
1
100
AcDbSpline
 70
8
 71
3
 72
8
 73
4
 74
0
 40
0
 40
0
 40
0
 40
0
 40
1
 40
1
 40
1
 40
1
 10
723.962244
 20
420.001569
 30
0.0
 10
725.748005
 20
419.262147
 30
0.0
 10
726.596083
 20
417.214625
 30
0.0
 10
725.857014
 20
415.428511
 30
0.0
  0
SPLINE
  5
1b4
100
AcDbEntity
  8
Layer_1
 62
1
100
AcDbSpline
 70
8
 71
3
 72
8
 73
4
 74
0
 40
0
 40
0
 40
0
 40
0
 40
1
 40
1
 40
1
 40
1
 10
725.857014
 20
415.428511
 30
0.0
 10
725.117239
 20
413.642750
 30
0.0
 10
723.071127
 20
412.794319
 30
0.0
 10
721.283955
 20
413.533742
 30
0.0
  0
SPLINE
  5
1b5
100
AcDbEntity
  8
Layer_1
 62
1
100
AcDbSpline
 70
8
 71
3
 72
8
 73
4
 74
0
 40
0
 40
0
 40
0
 40
0
 40
1
 40
1
 40
1
 40
1
 10
721.283955
 20
413.533742
 30
0.0
 10
719.498547
 20
414.273164
 30
0.0
 10
718.649764
 20
416.319275
 30
0.0
 10
719.389539
 20
418.106094
 30
0.0
  0
SPLINE
  5
1b6
100
AcDbEntity
  8
Layer_1
 62
1
100
AcDbSpline
 70
8
 71
3
 72
8
 73
4
 74
0
 40
0
 40
0
 40
0
 40
0
 40
1
 40
1
 40
1
 40
1
 10
719.389539
 20
418.106094
 30
0.0
 10
720.129666
 20
419.891856
 30
0.0
 10
722.176483
 20
420.740286
 30
0.0
 10
723.962244
 20
420.001569
 30
0.0
  0
LWPOLYLINE
  5
1b7
100
AcDbEntity
  8
Layer_1
 62
1
100
AcDbPolyline
 90
2
 70
1
 10
353.166976
 20
346.216616
 30
0.0
 10
353.166976
 20
346.216616
 30
0.0
  0
SPLINE
  5
1b8
100
AcDbEntity
  8
Layer_1
 62
1
100
AcDbSpline
 70
8
 71
3
 72
8
 73
4
 74
0
 40
0
 40
0
 40
0
 40
0
 40
1
 40
1
 40
1
 40
1
 10
308.194512
 20
592.141814
 30
0.0
 10
309.979921
 20
591.402392
 30
0.0
 10
310.828704
 20
589.354870
 30
0.0
 10
310.089635
 20
587.569109
 30
0.0
  0
SPLINE
  5
1b9
100
AcDbEntity
  8
Layer_1
 62
1
100
AcDbSpline
 70
8
 71
3
 72
8
 73
4
 74
0
 40
0
 40
0
 40
0
 40
0
 40
1
 40
1
 40
1
 40
1
 10
310.089635
 20
587.569109
 30
0.0
 10
309.349154
 20
585.782642
 30
0.0
 10
307.303043
 20
584.934564
 30
0.0
 10
305.516576
 20
585.673987
 30
0.0
  0
SPLINE
  5
1ba
100
AcDbEntity
  8
Layer_1
 62
1
100
AcDbSpline
 70
8
 71
3
 72
8
 73
4
 74
0
 40
0
 40
0
 40
0
 40
0
 40
1
 40
1
 40
1
 40
1
 10
305.516576
 20
585.673987
 30
0.0
 10
303.730815
 20
586.413762
 30
0.0
 10
302.882385
 20
588.460578
 30
0.0
 10
303.621807
 20
590.246692
 30
0.0
  0
SPLINE
  5
1bb
100
AcDbEntity
  8
Layer_1
 62
1
100
AcDbSpline
 70
8
 71
3
 72
8
 73
4
 74
0
 40
0
 40
0
 40
0
 40
0
 40
1
 40
1
 40
1
 40
1
 10
303.621807
 20
590.246692
 30
0.0
 10
304.361582
 20
592.032806
 30
0.0
 10
306.408046
 20
592.881237
 30
0.0
 10
308.194512
 20
592.141814
 30
0.0
  0
LWPOLYLINE
  5
1bc
100
AcDbEntity
  8
Layer_1
 62
1
100
AcDbPolyline
 90
2
 70
1
 10
723.962244
 20
420.001569
 30
0.0
 10
723.962244
 20
420.001569
 30
0.0
  0
SPLINE
  5
1bd
100
AcDbEntity
  8
Layer_1
 62
1
100
AcDbSpline
 70
8
 71
3
 72
8
 73
4
 74
0
 40
0
 40
0
 40
0
 40
0
 40
1
 40
1
 40
1
 40
1
 10
721.256827
 20
592.206408
 30
0.0
 10
723.042940
 20
592.946536
 30
0.0
 10
725.090110
 20
592.098105
 30
0.0
 10
725.830238
 20
590.312697
 30
0.0
  0
SPLINE
  5
1be
100
AcDbEntity
  8
Layer_1
 62
1
100
AcDbSpline
 70
8
 71
3
 72
8
 73
4
 74
0
 40
0
 40
0
 40
0
 40
0
 40
1
 40
1
 40
1
 40
1
 10
725.830238
 20
590.312697
 30
0.0
 10
726.570718
 20
588.526936
 30
0.0
 10
725.722288
 20
586.479766
 30
0.0
 10
723.936527
 20
585.738933
 30
0.0
  0
SPLINE
  5
1bf
100
AcDbEntity
  8
Layer_1
 62
1
100
AcDbSpline
 70
8
 71
3
 72
8
 73
4
 74
0
 40
0
 40
0
 40
0
 40
0
 40
1
 40
1
 40
1
 40
1
 10
723.936527
 20
585.738933
 30
0.0
 10
722.151118
 20
584.999511
 30
0.0
 10
720.103596
 20
585.847236
 30
0.0
 10
719.363821
 20
587.632997
 30
0.0
  0
SPLINE
  5
1c0
100
AcDbEntity
  8
Layer_1
 62
1
100
AcDbSpline
 70
8
 71
3
 72
8
 73
4
 74
0
 40
0
 40
0
 40
0
 40
0
 40
1
 40
1
 40
1
 40
1
 10
719.363821
 20
587.632997
 30
0.0
 10
718.623340
 20
589.418758
 30
0.0
 10
719.471065
 20
591.466280
 30
0.0
 10
721.256827
 20
592.206408
 30
0.0
  0
LWPOLYLINE
  5
1c1
100
AcDbEntity
  8
Layer_1
 62
1
100
AcDbPolyline
 90
2
 70
1
 10
308.194512
 20
592.141814
 30
0.0
 10
308.194512
 20
592.141814
 30
0.0
  0
SPLINE
  5
1c2
100
AcDbEntity
  8
Layer_1
 62
1
100
AcDbSpline
 70
8
 71
3
 72
8
 73
4
 74
0
 40
0
 40
0
 40
0
 40
0
 40
1
 40
1
 40
1
 40
1
 10
305.542999
 20
419.936129
 30
0.0
 10
307.328408
 20
420.676257
 30
0.0
 10
309.375577
 20
419.827826
 30
0.0
 10
310.116058
 20
418.042065
 30
0.0
  0
SPLINE
  5
1c3
100
AcDbEntity
  8
Layer_1
 62
1
100
AcDbSpline
 70
8
 71
3
 72
8
 73
4
 74
0
 40
0
 40
0
 40
0
 40
0
 40
1
 40
1
 40
1
 40
1
 10
310.116058
 20
418.042065
 30
0.0
 10
310.855833
 20
416.255951
 30
0.0
 10
310.008813
 20
414.209840
 30
0.0
 10
308.223052
 20
413.469007
 30
0.0
  0
SPLINE
  5
1c4
100
AcDbEntity
  8
Layer_1
 62
1
100
AcDbSpline
 70
8
 71
3
 72
8
 73
4
 74
0
 40
0
 40
0
 40
0
 40
0
 40
1
 40
1
 40
1
 40
1
 10
308.223052
 20
413.469007
 30
0.0
 10
306.436585
 20
412.728879
 30
0.0
 10
304.389416
 20
413.576604
 30
0.0
 10
303.649288
 20
415.362365
 30
0.0
  0
SPLINE
  5
1c5
100
AcDbEntity
  8
Layer_1
 62
1
100
AcDbSpline
 70
8
 71
3
 72
8
 73
4
 74
0
 40
0
 40
0
 40
0
 40
0
 40
1
 40
1
 40
1
 40
1
 10
303.649288
 20
415.362365
 30
0.0
 10
302.909513
 20
417.149185
 30
0.0
 10
303.756885
 20
419.196001
 30
0.0
 10
305.542999
 20
419.936129
 30
0.0
  0
LWPOLYLINE
  5
1c6
100
AcDbEntity
  8
Layer_1
 62
1
100
AcDbPolyline
 90
2
 70
1
 10
721.256827
 20
592.206408
 30
0.0
 10
721.256827
 20
592.206408
 30
0.0
  0
SPLINE
  5
1c7
100
AcDbEntity
  8
Layer_1
 62
1
100
AcDbSpline
 70
8
 71
3
 72
8
 73
4
 74
0
 40
0
 40
0
 40
0
 40
0
 40
1
 40
1
 40
1
 40
1
 10
604.108075
 20
296.320926
 30
0.0
 10
604.848203
 20
294.535165
 30
0.0
 10
603.999773
 20
292.487290
 30
0.0
 10
602.214364
 20
291.747162
 30
0.0
  0
SPLINE
  5
1c8
100
AcDbEntity
  8
Layer_1
 62
1
100
AcDbSpline
 70
8
 71
3
 72
8
 73
4
 74
0
 40
0
 40
0
 40
0
 40
0
 40
1
 40
1
 40
1
 40
1
 10
602.214364
 20
291.747162
 30
0.0
 10
600.428603
 20
291.007034
 30
0.0
 10
598.381787
 20
291.854759
 30
0.0
 10
597.640248
 20
293.640521
 30
0.0
  0
SPLINE
  5
1c9
100
AcDbEntity
  8
Layer_1
 62
1
100
AcDbSpline
 70
8
 71
3
 72
8
 73
4
 74
0
 40
0
 40
0
 40
0
 40
0
 40
1
 40
1
 40
1
 40
1
 10
597.640248
 20
293.640521
 30
0.0
 10
596.900473
 20
295.426634
 30
0.0
 10
597.748903
 20
297.473804
 30
0.0
 10
599.534312
 20
298.214284
 30
0.0
  0
SPLINE
  5
1ca
100
AcDbEntity
  8
Layer_1
 62
1
100
AcDbSpline
 70
8
 71
3
 72
8
 73
4
 74
0
 40
0
 40
0
 40
0
 40
0
 40
1
 40
1
 40
1
 40
1
 10
599.534312
 20
298.214284
 30
0.0
 10
601.320778
 20
298.953707
 30
0.0
 10
603.367948
 20
298.106334
 30
0.0
 10
604.108075
 20
296.320926
 30
0.0
  0
LWPOLYLINE
  5
1cb
100
AcDbEntity
  8
Layer_1
 62
1
100
AcDbPolyline
 90
2
 70
1
 10
305.542999
 20
419.936129
 30
0.0
 10
305.542999
 20
419.936129
 30
0.0
  0
SPLINE
  5
1cc
100
AcDbEntity
  8
Layer_1
 62
1
100
AcDbSpline
 70
8
 71
3
 72
8
 73
4
 74
0
 40
0
 40
0
 40
0
 40
0
 40
1
 40
1
 40
1
 40
1
 10
431.837444
 20
712.034753
 30
0.0
 10
432.577219
 20
710.248992
 30
0.0
 10
431.729141
 20
708.201470
 30
0.0
 10
429.943733
 20
707.461695
 30
0.0
  0
SPLINE
  5
1cd
100
AcDbEntity
  8
Layer_1
 62
1
100
AcDbSpline
 70
8
 71
3
 72
8
 73
4
 74
0
 40
0
 40
0
 40
0
 40
0
 40
1
 40
1
 40
1
 40
1
 10
429.943733
 20
707.461695
 30
0.0
 10
428.157972
 20
706.721214
 30
0.0
 10
426.110802
 20
707.568939
 30
0.0
 10
425.370674
 20
709.354701
 30
0.0
  0
SPLINE
  5
1ce
100
AcDbEntity
  8
Layer_1
 62
1
100
AcDbSpline
 70
8
 71
3
 72
8
 73
4
 74
0
 40
0
 40
0
 40
0
 40
0
 40
1
 40
1
 40
1
 40
1
 10
425.370674
 20
709.354701
 30
0.0
 10
424.630547
 20
711.140109
 30
0.0
 10
425.477919
 20
713.187984
 30
0.0
 10
427.264033
 20
713.927759
 30
0.0
  0
SPLINE
  5
1cf
100
AcDbEntity
  8
Layer_1
 62
1
100
AcDbSpline
 70
8
 71
3
 72
8
 73
4
 74
0
 40
0
 40
0
 40
0
 40
0
 40
1
 40
1
 40
1
 40
1
 10
427.264033
 20
713.927759
 30
0.0
 10
429.050147
 20
714.668239
 30
0.0
 10
431.097316
 20
713.820514
 30
0.0
 10
431.837444
 20
712.034753
 30
0.0
  0
LWPOLYLINE
  5
1d0
100
AcDbEntity
  8
Layer_1
 62
1
100
AcDbPolyline
 90
2
 70
1
 10
604.108075
 20
296.320926
 30
0.0
 10
604.108075
 20
296.320926
 30
0.0
  0
SPLINE
  5
1d1
100
AcDbEntity
  8
Layer_1
 62
1
100
AcDbSpline
 70
8
 71
3
 72
8
 73
4
 74
0
 40
0
 40
0
 40
0
 40
0
 40
1
 40
1
 40
1
 40
1
 10
597.575830
 20
712.060400
 30
0.0
 10
598.315605
 20
713.846514
 30
0.0
 10
600.363480
 20
714.694592
 30
0.0
 10
602.148889
 20
713.955523
 30
0.0
  0
SPLINE
  5
1d2
100
AcDbEntity
  8
Layer_1
 62
1
100
AcDbSpline
 70
8
 71
3
 72
8
 73
4
 74
0
 40
0
 40
0
 40
0
 40
0
 40
1
 40
1
 40
1
 40
1
 10
602.148889
 20
713.955523
 30
0.0
 10
603.935003
 20
713.216100
 30
0.0
 10
604.783433
 20
711.168578
 30
0.0
 10
604.044011
 20
709.382817
 30
0.0
  0
SPLINE
  5
1d3
100
AcDbEntity
  8
Layer_1
 62
1
100
AcDbSpline
 70
8
 71
3
 72
8
 73
4
 74
0
 40
0
 40
0
 40
0
 40
0
 40
1
 40
1
 40
1
 40
1
 10
604.044011
 20
709.382817
 30
0.0
 10
603.305294
 20
707.597056
 30
0.0
 10
601.258125
 20
706.748625
 30
0.0
 10
599.472011
 20
707.488048
 30
0.0
  0
SPLINE
  5
1d4
100
AcDbEntity
  8
Layer_1
 62
1
100
AcDbSpline
 70
8
 71
3
 72
8
 73
4
 74
0
 40
0
 40
0
 40
0
 40
0
 40
1
 40
1
 40
1
 40
1
 10
599.472011
 20
707.488048
 30
0.0
 10
597.685897
 20
708.227470
 30
0.0
 10
596.837114
 20
710.274286
 30
0.0
 10
597.575830
 20
712.060400
 30
0.0
  0
LWPOLYLINE
  5
1d5
100
AcDbEntity
  8
Layer_1
 62
1
100
AcDbPolyline
 90
2
 70
1
 10
431.837444
 20
712.034753
 30
0.0
 10
431.837444
 20
712.034753
 30
0.0
  0
SPLINE
  5
1d6
100
AcDbEntity
  8
Layer_1
 62
1
100
AcDbSpline
 70
8
 71
3
 72
8
 73
4
 74
0
 40
0
 40
0
 40
0
 40
0
 40
1
 40
1
 40
1
 40
1
 10
425.435762
 20
296.292669
 30
0.0
 10
426.175184
 20
298.078430
 30
0.0
 10
428.222354
 20
298.926860
 30
0.0
 10
430.009173
 20
298.187438
 30
0.0
  0
SPLINE
  5
1d7
100
AcDbEntity
  8
Layer_1
 62
1
100
AcDbSpline
 70
8
 71
3
 72
8
 73
4
 74
0
 40
0
 40
0
 40
0
 40
0
 40
1
 40
1
 40
1
 40
1
 10
430.009173
 20
298.187438
 30
0.0
 10
431.794934
 20
297.447310
 30
0.0
 10
432.642659
 20
295.401199
 30
0.0
 10
431.903942
 20
293.615085
 30
0.0
  0
SPLINE
  5
1d8
100
AcDbEntity
  8
Layer_1
 62
1
100
AcDbSpline
 70
8
 71
3
 72
8
 73
4
 74
0
 40
0
 40
0
 40
0
 40
0
 40
1
 40
1
 40
1
 40
1
 10
431.903942
 20
293.615085
 30
0.0
 10
431.163815
 20
291.828619
 30
0.0
 10
429.117351
 20
290.980188
 30
0.0
 10
427.330884
 20
291.719610
 30
0.0
  0
SPLINE
  5
1d9
100
AcDbEntity
  8
Layer_1
 62
1
100
AcDbSpline
 70
8
 71
3
 72
8
 73
4
 74
0
 40
0
 40
0
 40
0
 40
0
 40
1
 40
1
 40
1
 40
1
 10
427.330884
 20
291.719610
 30
0.0
 10
425.544770
 20
292.459033
 30
0.0
 10
424.695987
 20
294.506908
 30
0.0
 10
425.435762
 20
296.292669
 30
0.0
  0
LWPOLYLINE
  5
1da
100
AcDbEntity
  8
Layer_1
 62
1
100
AcDbPolyline
 90
2
 70
1
 10
597.575830
 20
712.060400
 30
0.0
 10
597.575830
 20
712.060400
 30
0.0
  0
SPLINE
  5
1db
100
AcDbEntity
  8
Layer_1
 62
1
100
AcDbSpline
 70
8
 71
3
 72
8
 73
4
 74
0
 40
0
 40
0
 40
0
 40
0
 40
1
 40
1
 40
1
 40
1
 10
644.491465
 20
378.034137
 30
0.0
 10
645.857773
 20
376.667829
 30
0.0
 10
645.858126
 20
374.451326
 30
0.0
 10
644.491112
 20
373.084312
 30
0.0
  0
SPLINE
  5
1dc
100
AcDbEntity
  8
Layer_1
 62
1
100
AcDbSpline
 70
8
 71
3
 72
8
 73
4
 74
0
 40
0
 40
0
 40
0
 40
0
 40
1
 40
1
 40
1
 40
1
 10
644.491112
 20
373.084312
 30
0.0
 10
643.124098
 20
371.717298
 30
0.0
 10
640.907948
 20
371.718004
 30
0.0
 10
639.540934
 20
373.084312
 30
0.0
  0
SPLINE
  5
1dd
100
AcDbEntity
  8
Layer_1
 62
1
100
AcDbSpline
 70
8
 71
3
 72
8
 73
4
 74
0
 40
0
 40
0
 40
0
 40
0
 40
1
 40
1
 40
1
 40
1
 10
639.540934
 20
373.084312
 30
0.0
 10
638.174626
 20
374.452032
 30
0.0
 10
638.173920
 20
376.667123
 30
0.0
 10
639.541287
 20
378.034137
 30
0.0
  0
SPLINE
  5
1de
100
AcDbEntity
  8
Layer_1
 62
1
100
AcDbSpline
 70
8
 71
3
 72
8
 73
4
 74
0
 40
0
 40
0
 40
0
 40
0
 40
1
 40
1
 40
1
 40
1
 10
639.541287
 20
378.034137
 30
0.0
 10
640.907948
 20
379.401151
 30
0.0
 10
643.123745
 20
379.401151
 30
0.0
 10
644.491465
 20
378.034137
 30
0.0
  0
LWPOLYLINE
  5
1df
100
AcDbEntity
  8
Layer_1
 62
1
100
AcDbPolyline
 90
2
 70
1
 10
425.435762
 20
296.292669
 30
0.0
 10
425.435762
 20
296.292669
 30
0.0
  0
SPLINE
  5
1e0
100
AcDbEntity
  8
Layer_1
 62
1
100
AcDbSpline
 70
8
 71
3
 72
8
 73
4
 74
0
 40
0
 40
0
 40
0
 40
0
 40
1
 40
1
 40
1
 40
1
 10
389.937498
 20
632.591526
 30
0.0
 10
391.304159
 20
631.224512
 30
0.0
 10
391.304512
 20
629.008362
 30
0.0
 10
389.937145
 20
627.641348
 30
0.0
  0
SPLINE
  5
1e1
100
AcDbEntity
  8
Layer_1
 62
1
100
AcDbSpline
 70
8
 71
3
 72
8
 73
4
 74
0
 40
0
 40
0
 40
0
 40
0
 40
1
 40
1
 40
1
 40
1
 10
389.937145
 20
627.641348
 30
0.0
 10
388.570131
 20
626.273982
 30
0.0
 10
386.354334
 20
626.274687
 30
0.0
 10
384.987673
 20
627.641701
 30
0.0
  0
SPLINE
  5
1e2
100
AcDbEntity
  8
Layer_1
 62
1
100
AcDbSpline
 70
8
 71
3
 72
8
 73
4
 74
0
 40
0
 40
0
 40
0
 40
0
 40
1
 40
1
 40
1
 40
1
 10
384.987673
 20
627.641701
 30
0.0
 10
383.620659
 20
629.008715
 30
0.0
 10
383.619954
 20
631.224159
 30
0.0
 10
384.987320
 20
632.591526
 30
0.0
  0
SPLINE
  5
1e3
100
AcDbEntity
  8
Layer_1
 62
1
100
AcDbSpline
 70
8
 71
3
 72
8
 73
4
 74
0
 40
0
 40
0
 40
0
 40
0
 40
1
 40
1
 40
1
 40
1
 10
384.987320
 20
632.591526
 30
0.0
 10
386.354334
 20
633.958540
 30
0.0
 10
388.570131
 20
633.958540
 30
0.0
 10
389.937498
 20
632.591526
 30
0.0
  0
LWPOLYLINE
  5
1e4
100
AcDbEntity
  8
Layer_1
 62
1
100
AcDbPolyline
 90
2
 70
1
 10
644.491465
 20
378.034137
 30
0.0
 10
644.491465
 20
378.034137
 30
0.0
  0
SPLINE
  5
1e5
100
AcDbEntity
  8
Layer_1
 62
1
100
AcDbSpline
 70
8
 71
3
 72
8
 73
4
 74
0
 40
0
 40
0
 40
0
 40
0
 40
1
 40
1
 40
1
 40
1
 10
694.737851
 20
506.336558
 30
0.0
 10
696.670720
 20
506.336558
 30
0.0
 10
698.238112
 20
504.769519
 30
0.0
 10
698.238112
 20
502.836649
 30
0.0
  0
SPLINE
  5
1e6
100
AcDbEntity
  8
Layer_1
 62
1
100
AcDbSpline
 70
8
 71
3
 72
8
 73
4
 74
0
 40
0
 40
0
 40
0
 40
0
 40
1
 40
1
 40
1
 40
1
 10
698.238112
 20
502.836649
 30
0.0
 10
698.238112
 20
500.903427
 30
0.0
 10
696.670367
 20
499.336741
 30
0.0
 10
694.737498
 20
499.336035
 30
0.0
  0
SPLINE
  5
1e7
100
AcDbEntity
  8
Layer_1
 62
1
100
AcDbSpline
 70
8
 71
3
 72
8
 73
4
 74
0
 40
0
 40
0
 40
0
 40
0
 40
1
 40
1
 40
1
 40
1
 10
694.737498
 20
499.336035
 30
0.0
 10
692.804629
 20
499.336741
 30
0.0
 10
691.237237
 20
500.902721
 30
0.0
 10
691.237590
 20
502.836296
 30
0.0
  0
SPLINE
  5
1e8
100
AcDbEntity
  8
Layer_1
 62
1
100
AcDbSpline
 70
8
 71
3
 72
8
 73
4
 74
0
 40
0
 40
0
 40
0
 40
0
 40
1
 40
1
 40
1
 40
1
 10
691.237590
 20
502.836296
 30
0.0
 10
691.237237
 20
504.769519
 30
0.0
 10
692.804629
 20
506.336558
 30
0.0
 10
694.737851
 20
506.336558
 30
0.0
  0
LWPOLYLINE
  5
1e9
100
AcDbEntity
  8
Layer_1
 62
1
100
AcDbPolyline
 90
2
 70
1
 10
389.937498
 20
632.591526
 30
0.0
 10
389.937498
 20
632.591526
 30
0.0
  0
SPLINE
  5
1ea
100
AcDbEntity
  8
Layer_1
 62
1
100
AcDbSpline
 70
8
 71
3
 72
8
 73
4
 74
0
 40
0
 40
0
 40
0
 40
0
 40
1
 40
1
 40
1
 40
1
 10
334.741746
 20
506.339133
 30
0.0
 10
336.673910
 20
506.339133
 30
0.0
 10
338.241654
 20
504.772094
 30
0.0
 10
338.242007
 20
502.838166
 30
0.0
  0
SPLINE
  5
1eb
100
AcDbEntity
  8
Layer_1
 62
1
100
AcDbSpline
 70
8
 71
3
 72
8
 73
4
 74
0
 40
0
 40
0
 40
0
 40
0
 40
1
 40
1
 40
1
 40
1
 10
338.242007
 20
502.838166
 30
0.0
 10
338.242007
 20
500.905649
 30
0.0
 10
336.673910
 20
499.338611
 30
0.0
 10
334.741746
 20
499.339316
 30
0.0
  0
SPLINE
  5
1ec
100
AcDbEntity
  8
Layer_1
 62
1
100
AcDbSpline
 70
8
 71
3
 72
8
 73
4
 74
0
 40
0
 40
0
 40
0
 40
0
 40
1
 40
1
 40
1
 40
1
 10
334.741746
 20
499.339316
 30
0.0
 10
332.808524
 20
499.338611
 30
0.0
 10
331.241485
 20
500.905649
 30
0.0
 10
331.241485
 20
502.838872
 30
0.0
  0
SPLINE
  5
1ed
100
AcDbEntity
  8
Layer_1
 62
1
100
AcDbSpline
 70
8
 71
3
 72
8
 73
4
 74
0
 40
0
 40
0
 40
0
 40
0
 40
1
 40
1
 40
1
 40
1
 10
331.241485
 20
502.838872
 30
0.0
 10
331.241485
 20
504.772094
 30
0.0
 10
332.808524
 20
506.339133
 30
0.0
 10
334.741746
 20
506.339133
 30
0.0
  0
LWPOLYLINE
  5
1ee
100
AcDbEntity
  8
Layer_1
 62
1
100
AcDbPolyline
 90
2
 70
1
 10
694.737851
 20
506.336558
 30
0.0
 10
694.737851
 20
506.336558
 30
0.0
  0
SPLINE
  5
1ef
100
AcDbEntity
  8
Layer_1
 62
1
100
AcDbSpline
 70
8
 71
3
 72
8
 73
4
 74
0
 40
0
 40
0
 40
0
 40
0
 40
1
 40
1
 40
1
 40
1
 10
518.238366
 20
322.839902
 30
0.0
 10
518.239072
 20
320.907033
 30
0.0
 10
516.671327
 20
319.339641
 30
0.0
 10
514.738105
 20
319.339641
 30
0.0
  0
SPLINE
  5
1f0
100
AcDbEntity
  8
Layer_1
 62
1
100
AcDbSpline
 70
8
 71
3
 72
8
 73
4
 74
0
 40
0
 40
0
 40
0
 40
0
 40
1
 40
1
 40
1
 40
1
 10
514.738105
 20
319.339641
 30
0.0
 10
512.804883
 20
319.338935
 30
0.0
 10
511.238197
 20
320.907033
 30
0.0
 10
511.238197
 20
322.839902
 30
0.0
  0
SPLINE
  5
1f1
100
AcDbEntity
  8
Layer_1
 62
1
100
AcDbSpline
 70
8
 71
3
 72
8
 73
4
 74
0
 40
0
 40
0
 40
0
 40
0
 40
1
 40
1
 40
1
 40
1
 10
511.238197
 20
322.839902
 30
0.0
 10
511.238549
 20
324.773477
 30
0.0
 10
512.804530
 20
326.340516
 30
0.0
 10
514.738105
 20
326.339810
 30
0.0
  0
SPLINE
  5
1f2
100
AcDbEntity
  8
Layer_1
 62
1
100
AcDbSpline
 70
8
 71
3
 72
8
 73
4
 74
0
 40
0
 40
0
 40
0
 40
0
 40
1
 40
1
 40
1
 40
1
 10
514.738105
 20
326.339810
 30
0.0
 10
516.671327
 20
326.340516
 30
0.0
 10
518.238719
 20
324.773477
 30
0.0
 10
518.238366
 20
322.839902
 30
0.0
  0
LWPOLYLINE
  5
1f3
100
AcDbEntity
  8
Layer_1
 62
1
100
AcDbPolyline
 90
2
 70
1
 10
334.741746
 20
506.339133
 30
0.0
 10
334.741746
 20
506.339133
 30
0.0
  0
SPLINE
  5
1f4
100
AcDbEntity
  8
Layer_1
 62
1
100
AcDbSpline
 70
8
 71
3
 72
8
 73
4
 74
0
 40
0
 40
0
 40
0
 40
0
 40
1
 40
1
 40
1
 40
1
 10
518.240765
 20
682.835831
 30
0.0
 10
518.240412
 20
680.902961
 30
0.0
 10
516.674079
 20
679.335569
 30
0.0
 10
514.740504
 20
679.335569
 30
0.0
  0
SPLINE
  5
1f5
100
AcDbEntity
  8
Layer_1
 62
1
100
AcDbSpline
 70
8
 71
3
 72
8
 73
4
 74
0
 40
0
 40
0
 40
0
 40
0
 40
1
 40
1
 40
1
 40
1
 10
514.740504
 20
679.335569
 30
0.0
 10
512.807282
 20
679.335922
 30
0.0
 10
511.240595
 20
680.902961
 30
0.0
 10
511.240948
 20
682.835831
 30
0.0
  0
SPLINE
  5
1f6
100
AcDbEntity
  8
Layer_1
 62
1
100
AcDbSpline
 70
8
 71
3
 72
8
 73
4
 74
0
 40
0
 40
0
 40
0
 40
0
 40
1
 40
1
 40
1
 40
1
 10
511.240948
 20
682.835831
 30
0.0
 10
511.240595
 20
684.769053
 30
0.0
 10
512.807282
 20
686.335739
 30
0.0
 10
514.740504
 20
686.335739
 30
0.0
  0
SPLINE
  5
1f7
100
AcDbEntity
  8
Layer_1
 62
1
100
AcDbSpline
 70
8
 71
3
 72
8
 73
4
 74
0
 40
0
 40
0
 40
0
 40
0
 40
1
 40
1
 40
1
 40
1
 10
514.740504
 20
686.335739
 30
0.0
 10
516.673726
 20
686.335739
 30
0.0
 10
518.240412
 20
684.769053
 30
0.0
 10
518.240765
 20
682.835831
 30
0.0
  0
LWPOLYLINE
  5
1f8
100
AcDbEntity
  8
Layer_1
 62
1
100
AcDbPolyline
 90
2
 70
1
 10
518.238366
 20
322.839902
 30
0.0
 10
518.238366
 20
322.839902
 30
0.0
  0
SPLINE
  5
1f9
100
AcDbEntity
  8
Layer_1
 62
1
100
AcDbSpline
 70
8
 71
3
 72
8
 73
4
 74
0
 40
0
 40
0
 40
0
 40
0
 40
1
 40
1
 40
1
 40
1
 10
639.543298
 20
632.589833
 30
0.0
 10
640.909959
 20
633.955788
 30
0.0
 10
643.126815
 20
633.956494
 30
0.0
 10
644.493123
 20
632.589833
 30
0.0
  0
SPLINE
  5
1fa
100
AcDbEntity
  8
Layer_1
 62
1
100
AcDbSpline
 70
8
 71
3
 72
8
 73
4
 74
0
 40
0
 40
0
 40
0
 40
0
 40
1
 40
1
 40
1
 40
1
 10
644.493123
 20
632.589833
 30
0.0
 10
645.860842
 20
631.223172
 30
0.0
 10
645.860137
 20
629.005963
 30
0.0
 10
644.493123
 20
627.639655
 30
0.0
  0
SPLINE
  5
1fb
100
AcDbEntity
  8
Layer_1
 62
1
100
AcDbSpline
 70
8
 71
3
 72
8
 73
4
 74
0
 40
0
 40
0
 40
0
 40
0
 40
1
 40
1
 40
1
 40
1
 10
644.493123
 20
627.639655
 30
0.0
 10
643.125756
 20
626.272288
 30
0.0
 10
640.910312
 20
626.272288
 30
0.0
 10
639.544004
 20
627.639302
 30
0.0
  0
SPLINE
  5
1fc
100
AcDbEntity
  8
Layer_1
 62
1
100
AcDbSpline
 70
8
 71
3
 72
8
 73
4
 74
0
 40
0
 40
0
 40
0
 40
0
 40
1
 40
1
 40
1
 40
1
 10
639.544004
 20
627.639302
 30
0.0
 10
638.176990
 20
629.005963
 30
0.0
 10
638.176284
 20
631.222819
 30
0.0
 10
639.543298
 20
632.589833
 30
0.0
  0
LWPOLYLINE
  5
1fd
100
AcDbEntity
  8
Layer_1
 62
1
100
AcDbPolyline
 90
2
 70
1
 10
518.240765
 20
682.835831
 30
0.0
 10
518.240765
 20
682.835831
 30
0.0
  0
SPLINE
  5
1fe
100
AcDbEntity
  8
Layer_1
 62
1
100
AcDbSpline
 70
8
 71
3
 72
8
 73
4
 74
0
 40
0
 40
0
 40
0
 40
0
 40
1
 40
1
 40
1
 40
1
 10
384.985874
 20
378.035513
 30
0.0
 10
386.352888
 20
379.402527
 30
0.0
 10
388.569038
 20
379.403233
 30
0.0
 10
389.936404
 20
378.035513
 30
0.0
  0
SPLINE
  5
1ff
100
AcDbEntity
  8
Layer_1
 62
1
100
AcDbSpline
 70
8
 71
3
 72
8
 73
4
 74
0
 40
0
 40
0
 40
0
 40
0
 40
1
 40
1
 40
1
 40
1
 10
389.936404
 20
378.035513
 30
0.0
 10
391.303418
 20
376.668499
 30
0.0
 10
391.302713
 20
374.452702
 30
0.0
 10
389.935699
 20
373.086394
 30
0.0
  0
SPLINE
  5
200
100
AcDbEntity
  8
Layer_1
 62
1
100
AcDbSpline
 70
8
 71
3
 72
8
 73
4
 74
0
 40
0
 40
0
 40
0
 40
0
 40
1
 40
1
 40
1
 40
1
 10
389.935699
 20
373.086394
 30
0.0
 10
388.568685
 20
371.719380
 30
0.0
 10
386.353240
 20
371.718674
 30
0.0
 10
384.985874
 20
373.086394
 30
0.0
  0
SPLINE
  5
201
100
AcDbEntity
  8
Layer_1
 62
1
100
AcDbSpline
 70
8
 71
3
 72
8
 73
4
 74
0
 40
0
 40
0
 40
0
 40
0
 40
1
 40
1
 40
1
 40
1
 10
384.985874
 20
373.086394
 30
0.0
 10
383.619565
 20
374.452702
 30
0.0
 10
383.618860
 20
376.668499
 30
0.0
 10
384.985874
 20
378.035513
 30
0.0
  0
LWPOLYLINE
  5
202
100
AcDbEntity
  8
Layer_1
 62
1
100
AcDbPolyline
 90
2
 70
1
 10
639.543298
 20
632.589833
 30
0.0
 10
639.543298
 20
632.589833
 30
0.0
  0
SPLINE
  5
203
100
AcDbEntity
  8
Layer_1
 62
1
100
AcDbSpline
 70
8
 71
3
 72
8
 73
4
 74
0
 40
0
 40
0
 40
0
 40
0
 40
1
 40
1
 40
1
 40
1
 10
682.385443
 20
437.215361
 30
0.0
 10
684.171204
 20
436.475233
 30
0.0
 10
685.019634
 20
434.428417
 30
0.0
 10
684.280212
 20
432.642303
 30
0.0
  0
SPLINE
  5
204
100
AcDbEntity
  8
Layer_1
 62
1
100
AcDbSpline
 70
8
 71
3
 72
8
 73
4
 74
0
 40
0
 40
0
 40
0
 40
0
 40
1
 40
1
 40
1
 40
1
 10
684.280212
 20
432.642303
 30
0.0
 10
683.540790
 20
430.856542
 30
0.0
 10
681.493620
 20
430.008111
 30
0.0
 10
679.707859
 20
430.747533
 30
0.0
  0
SPLINE
  5
205
100
AcDbEntity
  8
Layer_1
 62
1
100
AcDbSpline
 70
8
 71
3
 72
8
 73
4
 74
0
 40
0
 40
0
 40
0
 40
0
 40
1
 40
1
 40
1
 40
1
 10
679.707859
 20
430.747533
 30
0.0
 10
677.921393
 20
431.487661
 30
0.0
 10
677.072962
 20
433.534125
 30
0.0
 10
677.812737
 20
435.320592
 30
0.0
  0
SPLINE
  5
206
100
AcDbEntity
  8
Layer_1
 62
1
100
AcDbSpline
 70
8
 71
3
 72
8
 73
4
 74
0
 40
0
 40
0
 40
0
 40
0
 40
1
 40
1
 40
1
 40
1
 10
677.812737
 20
435.320592
 30
0.0
 10
678.552159
 20
437.106353
 30
0.0
 10
680.598976
 20
437.954783
 30
0.0
 10
682.385443
 20
437.215361
 30
0.0
  0
LWPOLYLINE
  5
207
100
AcDbEntity
  8
Layer_1
 62
1
100
AcDbPolyline
 90
2
 70
1
 10
384.985874
 20
378.035513
 30
0.0
 10
384.985874
 20
378.035513
 30
0.0
  0
SPLINE
  5
208
100
AcDbEntity
  8
Layer_1
 62
1
100
AcDbSpline
 70
8
 71
3
 72
8
 73
4
 74
0
 40
0
 40
0
 40
0
 40
0
 40
1
 40
1
 40
1
 40
1
 10
349.771137
 20
574.928552
 30
0.0
 10
351.556899
 20
574.188424
 30
0.0
 10
352.405682
 20
572.141255
 30
0.0
 10
351.666612
 20
570.355141
 30
0.0
  0
SPLINE
  5
209
100
AcDbEntity
  8
Layer_1
 62
1
100
AcDbSpline
 70
8
 71
3
 72
8
 73
4
 74
0
 40
0
 40
0
 40
0
 40
0
 40
1
 40
1
 40
1
 40
1
 10
351.666612
 20
570.355141
 30
0.0
 10
350.926837
 20
568.568674
 30
0.0
 10
348.879315
 20
567.720949
 30
0.0
 10
347.093554
 20
568.460724
 30
0.0
  0
SPLINE
  5
20a
100
AcDbEntity
  8
Layer_1
 62
1
100
AcDbSpline
 70
8
 71
3
 72
8
 73
4
 74
0
 40
0
 40
0
 40
0
 40
0
 40
1
 40
1
 40
1
 40
1
 10
347.093554
 20
568.460724
 30
0.0
 10
345.307440
 20
569.199794
 30
0.0
 10
344.458657
 20
571.246258
 30
0.0
 10
345.198079
 20
573.033077
 30
0.0
  0
SPLINE
  5
20b
100
AcDbEntity
  8
Layer_1
 62
1
100
AcDbSpline
 70
8
 71
3
 72
8
 73
4
 74
0
 40
0
 40
0
 40
0
 40
0
 40
1
 40
1
 40
1
 40
1
 10
345.198079
 20
573.033077
 30
0.0
 10
345.937501
 20
574.818838
 30
0.0
 10
347.985024
 20
575.667974
 30
0.0
 10
349.771137
 20
574.928552
 30
0.0
  0
LWPOLYLINE
  5
20c
100
AcDbEntity
  8
Layer_1
 62
1
100
AcDbPolyline
 90
2
 70
1
 10
682.385443
 20
437.215361
 30
0.0
 10
682.385443
 20
437.215361
 30
0.0
  0
SPLINE
  5
20d
100
AcDbEntity
  8
Layer_1
 62
1
100
AcDbSpline
 70
8
 71
3
 72
8
 73
4
 74
0
 40
0
 40
0
 40
0
 40
0
 40
1
 40
1
 40
1
 40
1
 10
679.685529
 20
574.979211
 30
0.0
 10
681.471290
 20
575.719339
 30
0.0
 10
683.519165
 20
574.871261
 30
0.0
 10
684.259292
 20
573.085500
 30
0.0
  0
SPLINE
  5
20e
100
AcDbEntity
  8
Layer_1
 62
1
100
AcDbSpline
 70
8
 71
3
 72
8
 73
4
 74
0
 40
0
 40
0
 40
0
 40
0
 40
1
 40
1
 40
1
 40
1
 10
684.259292
 20
573.085500
 30
0.0
 10
684.999067
 20
571.299739
 30
0.0
 10
684.150284
 20
569.252569
 30
0.0
 10
682.365581
 20
568.512441
 30
0.0
  0
SPLINE
  5
20f
100
AcDbEntity
  8
Layer_1
 62
1
100
AcDbSpline
 70
8
 71
3
 72
8
 73
4
 74
0
 40
0
 40
0
 40
0
 40
0
 40
1
 40
1
 40
1
 40
1
 10
682.365581
 20
568.512441
 30
0.0
 10
680.578762
 20
567.772314
 30
0.0
 10
678.531945
 20
568.620039
 30
0.0
 10
677.791817
 20
570.405800
 30
0.0
  0
SPLINE
  5
210
100
AcDbEntity
  8
Layer_1
 62
1
100
AcDbSpline
 70
8
 71
3
 72
8
 73
4
 74
0
 40
0
 40
0
 40
0
 40
0
 40
1
 40
1
 40
1
 40
1
 10
677.791817
 20
570.405800
 30
0.0
 10
677.052042
 20
572.191561
 30
0.0
 10
677.899767
 20
574.239436
 30
0.0
 10
679.685529
 20
574.979211
 30
0.0
  0
LWPOLYLINE
  5
211
100
AcDbEntity
  8
Layer_1
 62
1
100
AcDbPolyline
 90
2
 70
1
 10
349.771137
 20
574.928552
 30
0.0
 10
349.771137
 20
574.928552
 30
0.0
  0
SPLINE
  5
212
100
AcDbEntity
  8
Layer_1
 62
1
100
AcDbSpline
 70
8
 71
3
 72
8
 73
4
 74
0
 40
0
 40
0
 40
0
 40
0
 40
1
 40
1
 40
1
 40
1
 10
347.114121
 20
437.162974
 30
0.0
 10
348.899529
 20
437.903101
 30
0.0
 10
350.947757
 20
437.055376
 30
0.0
 10
351.687532
 20
435.269615
 30
0.0
  0
SPLINE
  5
213
100
AcDbEntity
  8
Layer_1
 62
1
100
AcDbSpline
 70
8
 71
3
 72
8
 73
4
 74
0
 40
0
 40
0
 40
0
 40
0
 40
1
 40
1
 40
1
 40
1
 10
351.687532
 20
435.269615
 30
0.0
 10
352.428013
 20
433.483501
 30
0.0
 10
351.579229
 20
431.435979
 30
0.0
 10
349.794174
 20
430.696557
 30
0.0
  0
SPLINE
  5
214
100
AcDbEntity
  8
Layer_1
 62
1
100
AcDbSpline
 70
8
 71
3
 72
8
 73
4
 74
0
 40
0
 40
0
 40
0
 40
0
 40
1
 40
1
 40
1
 40
1
 10
349.794174
 20
430.696557
 30
0.0
 10
348.007707
 20
429.956429
 30
0.0
 10
345.960538
 20
430.803449
 30
0.0
 10
345.220057
 20
432.589563
 30
0.0
  0
SPLINE
  5
215
100
AcDbEntity
  8
Layer_1
 62
1
100
AcDbSpline
 70
8
 71
3
 72
8
 73
4
 74
0
 40
0
 40
0
 40
0
 40
0
 40
1
 40
1
 40
1
 40
1
 10
345.220057
 20
432.589563
 30
0.0
 10
344.480282
 20
434.375324
 30
0.0
 10
345.328360
 20
436.422846
 30
0.0
 10
347.114121
 20
437.162974
 30
0.0
  0
LWPOLYLINE
  5
216
100
AcDbEntity
  8
Layer_1
 62
1
100
AcDbPolyline
 90
2
 70
1
 10
679.685529
 20
574.979211
 30
0.0
 10
679.685529
 20
574.979211
 30
0.0
  0
SPLINE
  5
217
100
AcDbEntity
  8
Layer_1
 62
1
100
AcDbSpline
 70
8
 71
3
 72
8
 73
4
 74
0
 40
0
 40
0
 40
0
 40
0
 40
1
 40
1
 40
1
 40
1
 10
586.880878
 20
337.892542
 30
0.0
 10
587.621359
 20
336.107133
 30
0.0
 10
586.772575
 20
334.058906
 30
0.0
 10
584.987873
 20
333.318072
 30
0.0
  0
SPLINE
  5
218
100
AcDbEntity
  8
Layer_1
 62
1
100
AcDbSpline
 70
8
 71
3
 72
8
 73
4
 74
0
 40
0
 40
0
 40
0
 40
0
 40
1
 40
1
 40
1
 40
1
 10
584.987873
 20
333.318072
 30
0.0
 10
583.201053
 20
332.578650
 30
0.0
 10
581.153531
 20
333.427081
 30
0.0
 10
580.414109
 20
335.212136
 30
0.0
  0
SPLINE
  5
219
100
AcDbEntity
  8
Layer_1
 62
1
100
AcDbSpline
 70
8
 71
3
 72
8
 73
4
 74
0
 40
0
 40
0
 40
0
 40
0
 40
1
 40
1
 40
1
 40
1
 10
580.414109
 20
335.212136
 30
0.0
 10
579.673981
 20
336.998956
 30
0.0
 10
580.521000
 20
339.046125
 30
0.0
 10
582.307114
 20
339.785900
 30
0.0
  0
SPLINE
  5
21a
100
AcDbEntity
  8
Layer_1
 62
1
100
AcDbSpline
 70
8
 71
3
 72
8
 73
4
 74
0
 40
0
 40
0
 40
0
 40
0
 40
1
 40
1
 40
1
 40
1
 10
582.307114
 20
339.785900
 30
0.0
 10
584.092875
 20
340.526028
 30
0.0
 10
586.141103
 20
339.678303
 30
0.0
 10
586.880878
 20
337.892542
 30
0.0
  0
LWPOLYLINE
  5
21b
100
AcDbEntity
  8
Layer_1
 62
1
100
AcDbPolyline
 90
2
 70
1
 10
347.114121
 20
437.162974
 30
0.0
 10
347.114121
 20
437.162974
 30
0.0
  0
SPLINE
  5
21c
100
AcDbEntity
  8
Layer_1
 62
1
100
AcDbSpline
 70
8
 71
3
 72
8
 73
4
 74
0
 40
0
 40
0
 40
0
 40
0
 40
1
 40
1
 40
1
 40
1
 10
449.064641
 20
670.463632
 30
0.0
 10
449.805122
 20
668.678223
 30
0.0
 10
448.957044
 20
666.629996
 30
0.0
 10
447.170930
 20
665.889515
 30
0.0
  0
SPLINE
  5
21d
100
AcDbEntity
  8
Layer_1
 62
1
100
AcDbSpline
 70
8
 71
3
 72
8
 73
4
 74
0
 40
0
 40
0
 40
0
 40
0
 40
1
 40
1
 40
1
 40
1
 10
447.170930
 20
665.889515
 30
0.0
 10
445.385522
 20
665.149740
 30
0.0
 10
443.337999
 20
665.997818
 30
0.0
 10
442.598224
 20
667.783226
 30
0.0
  0
SPLINE
  5
21e
100
AcDbEntity
  8
Layer_1
 62
1
100
AcDbSpline
 70
8
 71
3
 72
8
 73
4
 74
0
 40
0
 40
0
 40
0
 40
0
 40
1
 40
1
 40
1
 40
1
 10
442.598224
 20
667.783226
 30
0.0
 10
441.857391
 20
669.569340
 30
0.0
 10
442.705116
 20
671.616862
 30
0.0
 10
444.491583
 20
672.356990
 30
0.0
  0
SPLINE
  5
21f
100
AcDbEntity
  8
Layer_1
 62
1
100
AcDbSpline
 70
8
 71
3
 72
8
 73
4
 74
0
 40
0
 40
0
 40
0
 40
0
 40
1
 40
1
 40
1
 40
1
 10
444.491583
 20
672.356990
 30
0.0
 10
446.277344
 20
673.096765
 30
0.0
 10
448.324513
 20
672.249393
 30
0.0
 10
449.064641
 20
670.463632
 30
0.0
  0
LWPOLYLINE
  5
220
100
AcDbEntity
  8
Layer_1
 62
1
100
AcDbPolyline
 90
2
 70
1
 10
586.880878
 20
337.892542
 30
0.0
 10
586.880878
 20
337.892542
 30
0.0
  0
SPLINE
  5
221
100
AcDbEntity
  8
Layer_1
 62
1
100
AcDbSpline
 70
8
 71
3
 72
8
 73
4
 74
0
 40
0
 40
0
 40
0
 40
0
 40
1
 40
1
 40
1
 40
1
 10
580.362039
 20
670.483987
 30
0.0
 10
581.101461
 20
672.269395
 30
0.0
 10
583.149689
 20
673.118179
 30
0.0
 10
584.935097
 20
672.379109
 30
0.0
  0
SPLINE
  5
222
100
AcDbEntity
  8
Layer_1
 62
1
100
AcDbSpline
 70
8
 71
3
 72
8
 73
4
 74
0
 40
0
 40
0
 40
0
 40
0
 40
1
 40
1
 40
1
 40
1
 10
584.935097
 20
672.379109
 30
0.0
 10
586.721564
 20
671.639334
 30
0.0
 10
587.569289
 20
669.592165
 30
0.0
 10
586.829867
 20
667.806051
 30
0.0
  0
SPLINE
  5
223
100
AcDbEntity
  8
Layer_1
 62
1
100
AcDbSpline
 70
8
 71
3
 72
8
 73
4
 74
0
 40
0
 40
0
 40
0
 40
0
 40
1
 40
1
 40
1
 40
1
 10
586.829867
 20
667.806051
 30
0.0
 10
586.090092
 20
666.019937
 30
0.0
 10
584.043628
 20
665.170801
 30
0.0
 10
582.257161
 20
665.910223
 30
0.0
  0
SPLINE
  5
224
100
AcDbEntity
  8
Layer_1
 62
1
100
AcDbSpline
 70
8
 71
3
 72
8
 73
4
 74
0
 40
0
 40
0
 40
0
 40
0
 40
1
 40
1
 40
1
 40
1
 10
582.257161
 20
665.910223
 30
0.0
 10
580.471753
 20
666.649998
 30
0.0
 10
579.622264
 20
668.698226
 30
0.0
 10
580.362039
 20
670.483987
 30
0.0
  0
LWPOLYLINE
  5
225
100
AcDbEntity
  8
Layer_1
 62
1
100
AcDbPolyline
 90
2
 70
1
 10
449.064641
 20
670.463632
 30
0.0
 10
449.064641
 20
670.463632
 30
0.0
  0
SPLINE
  5
226
100
AcDbEntity
  8
Layer_1
 62
1
100
AcDbSpline
 70
8
 71
3
 72
8
 73
4
 74
0
 40
0
 40
0
 40
0
 40
0
 40
1
 40
1
 40
1
 40
1
 10
442.649342
 20
337.869117
 30
0.0
 10
443.389117
 20
339.654878
 30
0.0
 10
445.436639
 20
340.504720
 30
0.0
 10
447.222400
 20
339.764592
 30
0.0
  0
SPLINE
  5
227
100
AcDbEntity
  8
Layer_1
 62
1
100
AcDbSpline
 70
8
 71
3
 72
8
 73
4
 74
0
 40
0
 40
0
 40
0
 40
0
 40
1
 40
1
 40
1
 40
1
 10
447.222400
 20
339.764592
 30
0.0
 10
449.008867
 20
339.025170
 30
0.0
 10
449.856592
 20
336.977648
 30
0.0
 10
449.117170
 20
335.192239
 30
0.0
  0
SPLINE
  5
228
100
AcDbEntity
  8
Layer_1
 62
1
100
AcDbSpline
 70
8
 71
3
 72
8
 73
4
 74
0
 40
0
 40
0
 40
0
 40
0
 40
1
 40
1
 40
1
 40
1
 10
449.117170
 20
335.192239
 30
0.0
 10
448.377395
 20
333.405773
 30
0.0
 10
446.331636
 20
332.557342
 30
0.0
 10
444.544464
 20
333.296764
 30
0.0
  0
SPLINE
  5
229
100
AcDbEntity
  8
Layer_1
 62
1
100
AcDbSpline
 70
8
 71
3
 72
8
 73
4
 74
0
 40
0
 40
0
 40
0
 40
0
 40
1
 40
1
 40
1
 40
1
 10
444.544464
 20
333.296764
 30
0.0
 10
442.758703
 20
334.036187
 30
0.0
 10
441.909920
 20
336.083356
 30
0.0
 10
442.649342
 20
337.869117
 30
0.0
  0
LWPOLYLINE
  5
22a
100
AcDbEntity
  8
Layer_1
 62
1
100
AcDbPolyline
 90
2
 70
1
 10
580.362039
 20
670.483987
 30
0.0
 10
580.362039
 20
670.483987
 30
0.0
  0
SPLINE
  5
22b
100
AcDbEntity
  8
Layer_1
 62
1
100
AcDbSpline
 70
8
 71
3
 72
8
 73
4
 74
0
 40
0
 40
0
 40
0
 40
0
 40
1
 40
1
 40
1
 40
1
 10
518.239742
 20
367.839389
 30
0.0
 10
518.240095
 20
365.906519
 30
0.0
 10
516.673056
 20
364.339833
 30
0.0
 10
514.739834
 20
364.339128
 30
0.0
  0
SPLINE
  5
22c
100
AcDbEntity
  8
Layer_1
 62
1
100
AcDbSpline
 70
8
 71
3
 72
8
 73
4
 74
0
 40
0
 40
0
 40
0
 40
0
 40
1
 40
1
 40
1
 40
1
 10
514.739834
 20
364.339128
 30
0.0
 10
512.806611
 20
364.339833
 30
0.0
 10
511.239925
 20
365.906519
 30
0.0
 10
511.239925
 20
367.839389
 30
0.0
  0
SPLINE
  5
22d
100
AcDbEntity
  8
Layer_1
 62
1
100
AcDbSpline
 70
8
 71
3
 72
8
 73
4
 74
0
 40
0
 40
0
 40
0
 40
0
 40
1
 40
1
 40
1
 40
1
 10
511.239925
 20
367.839389
 30
0.0
 10
511.239925
 20
369.772611
 30
0.0
 10
512.806611
 20
371.339650
 30
0.0
 10
514.739834
 20
371.339650
 30
0.0
  0
SPLINE
  5
22e
100
AcDbEntity
  8
Layer_1
 62
1
100
AcDbSpline
 70
8
 71
3
 72
8
 73
4
 74
0
 40
0
 40
0
 40
0
 40
0
 40
1
 40
1
 40
1
 40
1
 10
514.739834
 20
371.339650
 30
0.0
 10
516.673056
 20
371.339650
 30
0.0
 10
518.239742
 20
369.773316
 30
0.0
 10
518.239742
 20
367.839389
 30
0.0
  0
LWPOLYLINE
  5
22f
100
AcDbEntity
  8
Layer_1
 62
1
100
AcDbPolyline
 90
2
 70
1
 10
442.649342
 20
337.869117
 30
0.0
 10
442.649342
 20
337.869117
 30
0.0
  0
SPLINE
  5
230
100
AcDbEntity
  8
Layer_1
 62
1
100
AcDbSpline
 70
8
 71
3
 72
8
 73
4
 74
0
 40
0
 40
0
 40
0
 40
0
 40
1
 40
1
 40
1
 40
1
 10
518.240447
 20
637.836168
 30
0.0
 10
518.240800
 20
635.903298
 30
0.0
 10
516.673761
 20
634.336259
 30
0.0
 10
514.740539
 20
634.335906
 30
0.0
  0
SPLINE
  5
231
100
AcDbEntity
  8
Layer_1
 62
1
100
AcDbSpline
 70
8
 71
3
 72
8
 73
4
 74
0
 40
0
 40
0
 40
0
 40
0
 40
1
 40
1
 40
1
 40
1
 10
514.740539
 20
634.335906
 30
0.0
 10
512.806964
 20
634.336259
 30
0.0
 10
511.240631
 20
635.903651
 30
0.0
 10
511.240631
 20
637.836168
 30
0.0
  0
SPLINE
  5
232
100
AcDbEntity
  8
Layer_1
 62
1
100
AcDbSpline
 70
8
 71
3
 72
8
 73
4
 74
0
 40
0
 40
0
 40
0
 40
0
 40
1
 40
1
 40
1
 40
1
 10
511.240631
 20
637.836168
 30
0.0
 10
511.240631
 20
639.769743
 30
0.0
 10
512.806964
 20
641.336429
 30
0.0
 10
514.740186
 20
641.336429
 30
0.0
  0
SPLINE
  5
233
100
AcDbEntity
  8
Layer_1
 62
1
100
AcDbSpline
 70
8
 71
3
 72
8
 73
4
 74
0
 40
0
 40
0
 40
0
 40
0
 40
1
 40
1
 40
1
 40
1
 10
514.740186
 20
641.336429
 30
0.0
 10
516.674114
 20
641.336429
 30
0.0
 10
518.240447
 20
639.769743
 30
0.0
 10
518.240447
 20
637.836168
 30
0.0
  0
LWPOLYLINE
  5
234
100
AcDbEntity
  8
Layer_1
 62
1
100
AcDbPolyline
 90
2
 70
1
 10
518.239742
 20
367.839389
 30
0.0
 10
518.239742
 20
367.839389
 30
0.0
  0
SPLINE
  5
235
100
AcDbEntity
  8
Layer_1
 62
1
100
AcDbSpline
 70
8
 71
3
 72
8
 73
4
 74
0
 40
0
 40
0
 40
0
 40
0
 40
1
 40
1
 40
1
 40
1
 10
612.673273
 20
409.855081
 30
0.0
 10
614.039581
 20
408.488067
 30
0.0
 10
614.039934
 20
406.272270
 30
0.0
 10
612.672920
 20
404.905256
 30
0.0
  0
SPLINE
  5
236
100
AcDbEntity
  8
Layer_1
 62
1
100
AcDbSpline
 70
8
 71
3
 72
8
 73
4
 74
0
 40
0
 40
0
 40
0
 40
0
 40
1
 40
1
 40
1
 40
1
 10
612.672920
 20
404.905256
 30
0.0
 10
611.305554
 20
403.537536
 30
0.0
 10
609.089756
 20
403.538948
 30
0.0
 10
607.723448
 20
404.905256
 30
0.0
  0
SPLINE
  5
237
100
AcDbEntity
  8
Layer_1
 62
1
100
AcDbSpline
 70
8
 71
3
 72
8
 73
4
 74
0
 40
0
 40
0
 40
0
 40
0
 40
1
 40
1
 40
1
 40
1
 10
607.723448
 20
404.905256
 30
0.0
 10
606.356434
 20
406.272270
 30
0.0
 10
606.356081
 20
408.488067
 30
0.0
 10
607.722742
 20
409.855081
 30
0.0
  0
SPLINE
  5
238
100
AcDbEntity
  8
Layer_1
 62
1
100
AcDbSpline
 70
8
 71
3
 72
8
 73
4
 74
0
 40
0
 40
0
 40
0
 40
0
 40
1
 40
1
 40
1
 40
1
 10
607.722742
 20
409.855081
 30
0.0
 10
609.090109
 20
411.222095
 30
0.0
 10
611.305906
 20
411.222095
 30
0.0
 10
612.673273
 20
409.855081
 30
0.0
  0
LWPOLYLINE
  5
239
100
AcDbEntity
  8
Layer_1
 62
1
100
AcDbPolyline
 90
2
 70
1
 10
518.240447
 20
637.836168
 30
0.0
 10
518.240447
 20
637.836168
 30
0.0
  0
SPLINE
  5
23a
100
AcDbEntity
  8
Layer_1
 62
1
100
AcDbSpline
 70
8
 71
3
 72
8
 73
4
 74
0
 40
0
 40
0
 40
0
 40
0
 40
1
 40
1
 40
1
 40
1
 10
421.756748
 20
600.771782
 30
0.0
 10
423.123762
 20
599.405474
 30
0.0
 10
423.123762
 20
597.188971
 30
0.0
 10
421.756748
 20
595.821957
 30
0.0
  0
SPLINE
  5
23b
100
AcDbEntity
  8
Layer_1
 62
1
100
AcDbSpline
 70
8
 71
3
 72
8
 73
4
 74
0
 40
0
 40
0
 40
0
 40
0
 40
1
 40
1
 40
1
 40
1
 10
421.756748
 20
595.821957
 30
0.0
 10
420.389382
 20
594.454590
 30
0.0
 10
418.173937
 20
594.455296
 30
0.0
 10
416.806923
 20
595.821957
 30
0.0
  0
SPLINE
  5
23c
100
AcDbEntity
  8
Layer_1
 62
1
100
AcDbSpline
 70
8
 71
3
 72
8
 73
4
 74
0
 40
0
 40
0
 40
0
 40
0
 40
1
 40
1
 40
1
 40
1
 10
416.806923
 20
595.821957
 30
0.0
 10
415.439909
 20
597.189324
 30
0.0
 10
415.439909
 20
599.404768
 30
0.0
 10
416.806570
 20
600.771782
 30
0.0
  0
SPLINE
  5
23d
100
AcDbEntity
  8
Layer_1
 62
1
100
AcDbSpline
 70
8
 71
3
 72
8
 73
4
 74
0
 40
0
 40
0
 40
0
 40
0
 40
1
 40
1
 40
1
 40
1
 10
416.806570
 20
600.771782
 30
0.0
 10
418.173937
 20
602.138796
 30
0.0
 10
420.389734
 20
602.138796
 30
0.0
 10
421.756748
 20
600.771782
 30
0.0
  0
LWPOLYLINE
  5
23e
100
AcDbEntity
  8
Layer_1
 62
1
100
AcDbPolyline
 90
2
 70
1
 10
612.673273
 20
409.855081
 30
0.0
 10
612.673273
 20
409.855081
 30
0.0
  0
SPLINE
  5
23f
100
AcDbEntity
  8
Layer_1
 62
1
100
AcDbSpline
 70
8
 71
3
 72
8
 73
4
 74
0
 40
0
 40
0
 40
0
 40
0
 40
1
 40
1
 40
1
 40
1
 10
421.756395
 20
404.904480
 30
0.0
 10
420.389734
 20
403.537466
 30
0.0
 10
418.173584
 20
403.538171
 30
0.0
 10
416.806570
 20
404.904480
 30
0.0
  0
SPLINE
  5
240
100
AcDbEntity
  8
Layer_1
 62
1
100
AcDbSpline
 70
8
 71
3
 72
8
 73
4
 74
0
 40
0
 40
0
 40
0
 40
0
 40
1
 40
1
 40
1
 40
1
 10
416.806570
 20
404.904480
 30
0.0
 10
415.439557
 20
406.271494
 30
0.0
 10
415.439909
 20
408.487291
 30
0.0
 10
416.806923
 20
409.854305
 30
0.0
  0
SPLINE
  5
241
100
AcDbEntity
  8
Layer_1
 62
1
100
AcDbSpline
 70
8
 71
3
 72
8
 73
4
 74
0
 40
0
 40
0
 40
0
 40
0
 40
1
 40
1
 40
1
 40
1
 10
416.806923
 20
409.854305
 30
0.0
 10
418.174290
 20
411.221319
 30
0.0
 10
420.389734
 20
411.222024
 30
0.0
 10
421.756748
 20
409.855010
 30
0.0
  0
SPLINE
  5
242
100
AcDbEntity
  8
Layer_1
 62
1
100
AcDbSpline
 70
8
 71
3
 72
8
 73
4
 74
0
 40
0
 40
0
 40
0
 40
0
 40
1
 40
1
 40
1
 40
1
 10
421.756748
 20
409.855010
 30
0.0
 10
423.123409
 20
408.487291
 30
0.0
 10
423.123762
 20
406.271494
 30
0.0
 10
421.756395
 20
404.904480
 30
0.0
  0
LWPOLYLINE
  5
243
100
AcDbEntity
  8
Layer_1
 62
1
100
AcDbPolyline
 90
2
 70
1
 10
421.756748
 20
600.771782
 30
0.0
 10
421.756748
 20
600.771782
 30
0.0
  0
SPLINE
  5
244
100
AcDbEntity
  8
Layer_1
 62
1
100
AcDbSpline
 70
8
 71
3
 72
8
 73
4
 74
0
 40
0
 40
0
 40
0
 40
0
 40
1
 40
1
 40
1
 40
1
 10
612.673273
 20
595.820299
 30
0.0
 10
611.306965
 20
594.453991
 30
0.0
 10
609.090815
 20
594.453285
 30
0.0
 10
607.724506
 20
595.820299
 30
0.0
  0
SPLINE
  5
245
100
AcDbEntity
  8
Layer_1
 62
1
100
AcDbSpline
 70
8
 71
3
 72
8
 73
4
 74
0
 40
0
 40
0
 40
0
 40
0
 40
1
 40
1
 40
1
 40
1
 10
607.724506
 20
595.820299
 30
0.0
 10
606.356434
 20
597.187666
 30
0.0
 10
606.357140
 20
599.403816
 30
0.0
 10
607.723801
 20
600.770124
 30
0.0
  0
SPLINE
  5
246
100
AcDbEntity
  8
Layer_1
 62
1
100
AcDbSpline
 70
8
 71
3
 72
8
 73
4
 74
0
 40
0
 40
0
 40
0
 40
0
 40
1
 40
1
 40
1
 40
1
 10
607.723801
 20
600.770124
 30
0.0
 10
609.091167
 20
602.137138
 30
0.0
 10
611.306612
 20
602.137843
 30
0.0
 10
612.673979
 20
600.770829
 30
0.0
  0
SPLINE
  5
247
100
AcDbEntity
  8
Layer_1
 62
1
100
AcDbSpline
 70
8
 71
3
 72
8
 73
4
 74
0
 40
0
 40
0
 40
0
 40
0
 40
1
 40
1
 40
1
 40
1
 10
612.673979
 20
600.770829
 30
0.0
 10
614.041345
 20
599.403463
 30
0.0
 10
614.041345
 20
597.187666
 30
0.0
 10
612.673273
 20
595.820299
 30
0.0
  0
LWPOLYLINE
  5
248
100
AcDbEntity
  8
Layer_1
 62
1
100
AcDbPolyline
 90
2
 70
1
 10
421.756395
 20
404.904480
 30
0.0
 10
421.756395
 20
404.904480
 30
0.0
  0
SPLINE
  5
249
100
AcDbEntity
  8
Layer_1
 62
1
100
AcDbSpline
 70
8
 71
3
 72
8
 73
4
 74
0
 40
0
 40
0
 40
0
 40
0
 40
1
 40
1
 40
1
 40
1
 10
649.738011
 20
506.338074
 30
0.0
 10
651.670881
 20
506.338074
 30
0.0
 10
653.237920
 20
504.770683
 30
0.0
 10
653.238625
 20
502.838166
 30
0.0
  0
SPLINE
  5
24a
100
AcDbEntity
  8
Layer_1
 62
1
100
AcDbSpline
 70
8
 71
3
 72
8
 73
4
 74
0
 40
0
 40
0
 40
0
 40
0
 40
1
 40
1
 40
1
 40
1
 10
653.238625
 20
502.838166
 30
0.0
 10
653.237920
 20
500.904238
 30
0.0
 10
651.670881
 20
499.337905
 30
0.0
 10
649.738011
 20
499.337905
 30
0.0
  0
SPLINE
  5
24b
100
AcDbEntity
  8
Layer_1
 62
1
100
AcDbSpline
 70
8
 71
3
 72
8
 73
4
 74
0
 40
0
 40
0
 40
0
 40
0
 40
1
 40
1
 40
1
 40
1
 10
649.738011
 20
499.337905
 30
0.0
 10
647.804789
 20
499.338611
 30
0.0
 10
646.237750
 20
500.904591
 30
0.0
 10
646.237750
 20
502.837813
 30
0.0
  0
SPLINE
  5
24c
100
AcDbEntity
  8
Layer_1
 62
1
100
AcDbSpline
 70
8
 71
3
 72
8
 73
4
 74
0
 40
0
 40
0
 40
0
 40
0
 40
1
 40
1
 40
1
 40
1
 10
646.237750
 20
502.837813
 30
0.0
 10
646.237750
 20
504.771036
 30
0.0
 10
647.804436
 20
506.338074
 30
0.0
 10
649.738011
 20
506.338074
 30
0.0
  0
LWPOLYLINE
  5
24d
100
AcDbEntity
  8
Layer_1
 62
1
100
AcDbPolyline
 90
2
 70
1
 10
612.673273
 20
595.820299
 30
0.0
 10
612.673273
 20
595.820299
 30
0.0
  0
SPLINE
  5
24e
100
AcDbEntity
  8
Layer_1
 62
1
100
AcDbSpline
 70
8
 71
3
 72
8
 73
4
 74
0
 40
0
 40
0
 40
0
 40
0
 40
1
 40
1
 40
1
 40
1
 10
379.741056
 20
506.339309
 30
0.0
 10
381.673925
 20
506.338956
 30
0.0
 10
383.241317
 20
504.771565
 30
0.0
 10
383.241317
 20
502.839401
 30
0.0
  0
SPLINE
  5
24f
100
AcDbEntity
  8
Layer_1
 62
1
100
AcDbSpline
 70
8
 71
3
 72
8
 73
4
 74
0
 40
0
 40
0
 40
0
 40
0
 40
1
 40
1
 40
1
 40
1
 10
383.241317
 20
502.839401
 30
0.0
 10
383.241317
 20
500.904768
 30
0.0
 10
381.673925
 20
499.338787
 30
0.0
 10
379.741056
 20
499.338787
 30
0.0
  0
SPLINE
  5
250
100
AcDbEntity
  8
Layer_1
 62
1
100
AcDbSpline
 70
8
 71
3
 72
8
 73
4
 74
0
 40
0
 40
0
 40
0
 40
0
 40
1
 40
1
 40
1
 40
1
 10
379.741056
 20
499.338787
 30
0.0
 10
377.807834
 20
499.338787
 30
0.0
 10
376.240795
 20
500.905473
 30
0.0
 10
376.240795
 20
502.838695
 30
0.0
  0
SPLINE
  5
251
100
AcDbEntity
  8
Layer_1
 62
1
100
AcDbSpline
 70
8
 71
3
 72
8
 73
4
 74
0
 40
0
 40
0
 40
0
 40
0
 40
1
 40
1
 40
1
 40
1
 10
376.240795
 20
502.838695
 30
0.0
 10
376.241148
 20
504.772270
 30
0.0
 10
377.807834
 20
506.338956
 30
0.0
 10
379.741056
 20
506.339309
 30
0.0
  0
LWPOLYLINE
  5
252
100
AcDbEntity
  8
Layer_1
 62
1
100
AcDbPolyline
 90
2
 70
1
 10
649.738011
 20
506.338074
 30
0.0
 10
649.738011
 20
506.338074
 30
0.0
  0
SPLINE
  5
253
100
AcDbEntity
  8
Layer_1
 62
1
100
AcDbSpline
 70
8
 71
3
 72
8
 73
4
 74
0
 40
0
 40
0
 40
0
 40
0
 40
1
 40
1
 40
1
 40
1
 10
424.740543
 20
506.338074
 30
0.0
 10
426.673765
 20
506.338074
 30
0.0
 10
428.240451
 20
504.771036
 30
0.0
 10
428.240451
 20
502.837813
 30
0.0
  0
SPLINE
  5
254
100
AcDbEntity
  8
Layer_1
 62
1
100
AcDbSpline
 70
8
 71
3
 72
8
 73
4
 74
0
 40
0
 40
0
 40
0
 40
0
 40
1
 40
1
 40
1
 40
1
 10
428.240451
 20
502.837813
 30
0.0
 10
428.240451
 20
500.904591
 30
0.0
 10
426.673412
 20
499.337905
 30
0.0
 10
424.740543
 20
499.337905
 30
0.0
  0
SPLINE
  5
255
100
AcDbEntity
  8
Layer_1
 62
1
100
AcDbSpline
 70
8
 71
3
 72
8
 73
4
 74
0
 40
0
 40
0
 40
0
 40
0
 40
1
 40
1
 40
1
 40
1
 10
424.740543
 20
499.337905
 30
0.0
 10
422.807673
 20
499.337905
 30
0.0
 10
421.240634
 20
500.904238
 30
0.0
 10
421.240282
 20
502.837813
 30
0.0
  0
SPLINE
  5
256
100
AcDbEntity
  8
Layer_1
 62
1
100
AcDbSpline
 70
8
 71
3
 72
8
 73
4
 74
0
 40
0
 40
0
 40
0
 40
0
 40
1
 40
1
 40
1
 40
1
 10
421.240282
 20
502.837813
 30
0.0
 10
421.240987
 20
504.770683
 30
0.0
 10
422.807673
 20
506.338074
 30
0.0
 10
424.740543
 20
506.338074
 30
0.0
  0
LWPOLYLINE
  5
257
100
AcDbEntity
  8
Layer_1
 62
1
100
AcDbPolyline
 90
2
 70
1
 10
379.741056
 20
506.339309
 30
0.0
 10
379.741056
 20
506.339309
 30
0.0
  0
SPLINE
  5
258
100
AcDbEntity
  8
Layer_1
 62
1
100
AcDbSpline
 70
8
 71
3
 72
8
 73
4
 74
0
 40
0
 40
0
 40
0
 40
0
 40
1
 40
1
 40
1
 40
1
 10
515.215307
 20
41.489288
 30
0.0
 10
512.729988
 20
41.489288
 30
0.0
 10
510.714569
 20
43.504002
 30
0.0
 10
510.714569
 20
45.989321
 30
0.0
  0
SPLINE
  5
259
100
AcDbEntity
  8
Layer_1
 62
1
100
AcDbSpline
 70
8
 71
3
 72
8
 73
4
 74
0
 40
0
 40
0
 40
0
 40
0
 40
1
 40
1
 40
1
 40
1
 10
510.714569
 20
45.989321
 30
0.0
 10
510.714569
 20
48.474641
 30
0.0
 10
512.729988
 20
50.489354
 30
0.0
 10
515.215307
 20
50.489354
 30
0.0
  0
SPLINE
  5
25a
100
AcDbEntity
  8
Layer_1
 62
1
100
AcDbSpline
 70
8
 71
3
 72
8
 73
4
 74
0
 40
0
 40
0
 40
0
 40
0
 40
1
 40
1
 40
1
 40
1
 10
515.215307
 20
50.489354
 30
0.0
 10
517.700627
 20
50.489354
 30
0.0
 10
519.715341
 20
48.474641
 30
0.0
 10
519.715341
 20
45.989321
 30
0.0
  0
SPLINE
  5
25b
100
AcDbEntity
  8
Layer_1
 62
1
100
AcDbSpline
 70
8
 71
3
 72
8
 73
4
 74
0
 40
0
 40
0
 40
0
 40
0
 40
1
 40
1
 40
1
 40
1
 10
519.715341
 20
45.989321
 30
0.0
 10
519.715341
 20
43.504002
 30
0.0
 10
517.700627
 20
41.489288
 30
0.0
 10
515.215307
 20
41.489288
 30
0.0
  0
LWPOLYLINE
  5
25c
100
AcDbEntity
  8
Layer_1
 62
1
100
AcDbPolyline
 90
2
 70
1
 10
424.740543
 20
506.338074
 30
0.0
 10
424.740543
 20
506.338074
 30
0.0
  0
LWPOLYLINE
  5
25d
100
AcDbEntity
  8
Layer_1
 62
1
100
AcDbPolyline
 90
2
 70
1
 10
515.215307
 20
41.489288
 30
0.0
 10
515.215307
 20
41.489288
 30
0.0
  0
SPLINE
  5
25e
100
AcDbEntity
  8
Layer_1
 62
1
100
AcDbSpline
 70
8
 71
3
 72
8
 73
4
 74
0
 40
0
 40
0
 40
0
 40
0
 40
1
 40
1
 40
1
 40
1
 10
515.214602
 20
128.586805
 30
0.0
 10
511.072991
 20
128.586805
 30
0.0
 10
507.715957
 20
131.955480
 30
0.0
 10
507.715957
 20
136.110849
 30
0.0
  0
SPLINE
  5
25f
100
AcDbEntity
  8
Layer_1
 62
1
100
AcDbSpline
 70
8
 71
3
 72
8
 73
4
 74
0
 40
0
 40
0
 40
0
 40
0
 40
1
 40
1
 40
1
 40
1
 10
507.715957
 20
136.110849
 30
0.0
 10
507.715957
 20
140.266219
 30
0.0
 10
511.072991
 20
143.634894
 30
0.0
 10
515.214602
 20
143.634894
 30
0.0
  0
SPLINE
  5
260
100
AcDbEntity
  8
Layer_1
 62
1
100
AcDbSpline
 70
8
 71
3
 72
8
 73
4
 74
0
 40
0
 40
0
 40
0
 40
0
 40
1
 40
1
 40
1
 40
1
 10
515.214602
 20
143.634894
 30
0.0
 10
519.356213
 20
143.634894
 30
0.0
 10
522.713952
 20
140.266219
 30
0.0
 10
522.713952
 20
136.110849
 30
0.0
  0
SPLINE
  5
261
100
AcDbEntity
  8
Layer_1
 62
1
100
AcDbSpline
 70
8
 71
3
 72
8
 73
4
 74
0
 40
0
 40
0
 40
0
 40
0
 40
1
 40
1
 40
1
 40
1
 10
522.713952
 20
136.110849
 30
0.0
 10
522.713952
 20
131.955480
 30
0.0
 10
519.356213
 20
128.586805
 30
0.0
 10
515.214602
 20
128.586805
 30
0.0
  0
LWPOLYLINE
  5
262
100
AcDbEntity
  8
Layer_1
 62
1
100
AcDbPolyline
 90
6
 70
1
 10
520.714055
 20
71.185486
 30
0.0
 10
509.715855
 20
71.185486
 30
0.0
 10
509.715855
 20
83.186281
 30
0.0
 10
520.714055
 20
83.186281
 30
0.0
 10
520.714055
 20
71.185486
 30
0.0
 10
520.714055
 20
71.185486
 30
0.0
  0
SPLINE
  5
263
100
AcDbEntity
  8
Layer_1
 62
1
100
AcDbSpline
 70
8
 71
3
 72
8
 73
4
 74
0
 40
0
 40
0
 40
0
 40
0
 40
1
 40
1
 40
1
 40
1
 10
515.171210
 20
164.481274
 30
0.0
 10
511.029599
 20
164.481274
 30
0.0
 10
507.671860
 20
167.849949
 30
0.0
 10
507.671860
 20
172.005318
 30
0.0
  0
SPLINE
  5
264
100
AcDbEntity
  8
Layer_1
 62
1
100
AcDbSpline
 70
8
 71
3
 72
8
 73
4
 74
0
 40
0
 40
0
 40
0
 40
0
 40
1
 40
1
 40
1
 40
1
 10
507.671860
 20
172.005318
 30
0.0
 10
507.671860
 20
176.160688
 30
0.0
 10
511.029599
 20
179.530068
 30
0.0
 10
515.171210
 20
179.530068
 30
0.0
  0
SPLINE
  5
265
100
AcDbEntity
  8
Layer_1
 62
1
100
AcDbSpline
 70
8
 71
3
 72
8
 73
4
 74
0
 40
0
 40
0
 40
0
 40
0
 40
1
 40
1
 40
1
 40
1
 10
515.171210
 20
179.530068
 30
0.0
 10
519.312821
 20
179.530068
 30
0.0
 10
522.670560
 20
176.160688
 30
0.0
 10
522.670560
 20
172.005318
 30
0.0
  0
SPLINE
  5
266
100
AcDbEntity
  8
Layer_1
 62
1
100
AcDbSpline
 70
8
 71
3
 72
8
 73
4
 74
0
 40
0
 40
0
 40
0
 40
0
 40
1
 40
1
 40
1
 40
1
 10
522.670560
 20
172.005318
 30
0.0
 10
522.670560
 20
167.849949
 30
0.0
 10
519.312821
 20
164.481274
 30
0.0
 10
515.171210
 20
164.481274
 30
0.0
  0
LWPOLYLINE
  5
267
100
AcDbEntity
  8
Layer_1
 62
1
100
AcDbPolyline
 90
2
 70
1
 10
515.214602
 20
128.586805
 30
0.0
 10
515.214602
 20
128.586805
 30
0.0
  0
LWPOLYLINE
  5
268
100
AcDbEntity
  8
Layer_1
 62
1
100
AcDbPolyline
 90
2
 70
1
 10
515.171210
 20
164.481274
 30
0.0
 10
515.171210
 20
164.481274
 30
0.0
  0
LWPOLYLINE
  5
269
100
AcDbEntity
  8
Layer_1
 62
1
100
AcDbPolyline
 90
6
 70
1
 10
511.322687
 20
108.005820
 30
0.0
 10
519.107081
 20
108.005820
 30
0.0
 10
518.543695
 20
103.957695
 30
0.0
 10
511.856087
 20
103.957695
 30
0.0
 10
511.322687
 20
108.005820
 30
0.0
 10
511.322687
 20
108.005820
 30
0.0
  0
LWPOLYLINE
  5
26a
100
AcDbEntity
  8
Layer_1
 62
1
100
AcDbPolyline
 90
6
 70
1
 10
514.739199
 20
9.712406
 30
0.0
 10
21.613721
 20
502.837884
 30
0.0
 10
514.738846
 20
995.963009
 30
0.0
 10
1007.864324
 20
502.837531
 30
0.0
 10
514.739199
 20
9.712406
 30
0.0
 10
514.739199
 20
9.712406
 30
0.0
  0
LWPOLYLINE
  5
26b
100
AcDbEntity
  8
Layer_1
 62
1
100
AcDbPolyline
 90
2
 70
0
 10
21.613544
 20
502.837884
 30
0.0
 10
166.046764
 20
154.145273
 30
0.0
  0
LWPOLYLINE
  5
26c
100
AcDbEntity
  8
Layer_1
 62
1
100
AcDbPolyline
 90
4
 70
0
 10
166.046587
 20
154.145273
 30
0.0
 10
514.739199
 20
9.712406
 30
0.0
 10
863.431457
 20
154.145273
 30
0.0
 10
1007.864288
 20
502.837531
 30
0.0
  0
LWPOLYLINE
  5
26d
100
AcDbEntity
  8
Layer_1
 62
1
100
AcDbPolyline
 90
2
 70
0
 10
1007.864288
 20
502.837708
 30
0.0
 10
863.431422
 20
851.529966
 30
0.0
  0
LWPOLYLINE
  5
26e
100
AcDbEntity
  8
Layer_1
 62
1
100
AcDbPolyline
 90
2
 70
0
 10
863.431422
 20
851.530107
 30
0.0
 10
514.738810
 20
995.963326
 30
0.0
  0
LWPOLYLINE
  5
26f
100
AcDbEntity
  8
Layer_1
 62
1
100
AcDbPolyline
 90
2
 70
0
 10
514.738846
 20
995.963150
 30
0.0
 10
166.046587
 20
851.529931
 30
0.0
  0
LWPOLYLINE
  5
270
100
AcDbEntity
  8
Layer_1
 62
1
100
AcDbPolyline
 90
2
 70
0
 10
166.046587
 20
851.530107
 30
0.0
 10
21.613368
 20
502.837849
 30
0.0
  0
ENDSEC
  0
SECTION
  2
OBJECTS
  0
DICTIONARY
  5
C
330
0
100
AcDbDictionary
  3
ACAD_GROUP
350
D
  3
ACAD_MLINESTYLE
350
17
  0
DICTIONARY
  5
D
330
C
100
AcDbDictionary
  0
DICTIONARY
  5
1A
330
C
100
AcDbDictionary
  0
DICTIONARY
  5
17
330
C
100
AcDbDictionary
  3
STANDARD
350
18
  0
DICTIONARY
  5
19
330
C
100
AcDbDictionary
  0
ENDSEC
  0
EOF
